<svg width="1396" height="1015" viewBox="0 0 1396 1015" fill="none" xmlns="http://www.w3.org/2000/svg">
<path fill-rule="evenodd" clip-rule="evenodd" d="M1395.25 118.686C1395.25 53.3842 1342.31 0.446289 1277.01 0.446289H1065.85C1000.55 0.446289 947.613 53.3841 947.613 118.686V389.17C947.613 454.472 894.675 507.41 829.373 507.41H118.257C52.9546 507.41 0.0167236 560.348 0.0167236 625.65V896.133C0.0167236 961.435 52.9545 1014.37 118.257 1014.37H1277.01C1342.31 1014.37 1395.25 961.435 1395.25 896.133L1395.25 566.024V118.686Z" fill="#FFBE21"/>
<mask id="mask0_2_1318" style="mask-type:alpha" maskUnits="userSpaceOnUse" x="0" y="0" width="1396" height="1015">
<path fill-rule="evenodd" clip-rule="evenodd" d="M1395.25 118.686C1395.25 53.3842 1342.31 0.446289 1277.01 0.446289H1065.85C1000.55 0.446289 947.613 53.3841 947.613 118.686V389.17C947.613 454.472 894.675 507.41 829.373 507.41H118.257C52.9545 507.41 0.0166321 560.348 0.0166321 625.65V896.133C0.0166321 961.435 52.9544 1014.37 118.257 1014.37H1277.01C1342.31 1014.37 1395.25 961.435 1395.25 896.133L1395.25 566.024V118.686Z" fill="#4A9B52"/>
</mask>
<g mask="url(#mask0_2_1318)">
<path d="M1223.94 420.563C1350.1 500.273 1398.3 353.501 1401.2 236C1404.79 198.26 1402.2 111.656 1363.08 67.1704C1314.18 11.5632 1232.91 73.1883 1169.09 177.613C1105.27 282.037 1097.79 340.854 1223.94 420.563Z" fill="url(#paint0_linear_2_1318)"/>
<path d="M1031.28 461.913L915.367 528.533L1031.28 493.327L967.364 528.533H1031.28L1000.94 567.53" stroke="#F6E9D3" stroke-width="5.912" stroke-linecap="round" stroke-linejoin="round"/>
<path d="M210.169 634.85L367.241 872.466L271.007 485.648L367.241 681.268V485.648L398.213 634.85V435.915L524.313 561.907" stroke="#EDA800" stroke-width="7.0944" stroke-linejoin="round"/>
<path d="M1134.01 423.272C1111.59 473.453 1157.01 573.66 1182.52 617.491C1210.25 657.21 1258.94 721.043 1231.89 658.632C1198.07 580.617 1321.43 498.847 1313.36 462.856C1306.91 434.062 1281.91 435.382 1270.22 439.64C1314.71 395.349 1401.59 298.865 1393.17 267.254C1384.74 235.643 1344.58 240.093 1325.55 246.27C1353.25 212.644 1392.31 129.715 1326.98 67.003C1245.32 -11.3874 1156.72 80.3035 1208.15 138.543C1249.29 185.134 1251.08 227.467 1246.82 242.81C1239.96 235.549 1219.91 227.665 1194.64 254.218C1169.37 280.771 1180.66 364.066 1189.46 402.395C1180.32 388.445 1156.43 373.091 1134.01 423.272Z" fill="url(#paint1_linear_2_1318)"/>
<path d="M1195.72 48.4122C1218.17 -1.81976 1172.7 -102.13 1147.16 -146.006C1119.4 -185.765 1070.66 -249.664 1097.74 -187.188C1131.59 -109.094 1008.1 -27.2406 1016.18 8.78775C1022.64 37.6105 1047.66 36.2899 1059.37 32.0268C1014.83 76.363 927.866 172.946 936.298 204.589C944.729 236.232 984.935 231.778 1003.98 225.595C976.259 259.255 937.157 342.268 1002.55 405.045C1084.29 483.515 1172.99 391.731 1121.51 333.432C1080.32 286.793 1078.53 244.417 1082.79 229.059C1089.66 236.327 1109.73 244.219 1135.03 217.639C1160.33 191.059 1149.03 107.678 1140.21 69.3104C1149.36 83.2743 1173.27 98.6441 1195.72 48.4122Z" fill="url(#paint2_linear_2_1318)"/>
<path fill-rule="evenodd" clip-rule="evenodd" d="M1214.42 56.0168C1213.64 55.3969 1212.49 55.4767 1211.85 56.195C1211.21 56.9133 1211.33 57.9982 1212.11 58.6181C1226.74 70.2139 1263.75 103.591 1282.3 152.595C1293.83 183.069 1293.87 221.911 1284.4 266.668C1275.46 308.92 1258.08 356.301 1234.1 406.64C1233.11 407.528 1232.15 408.37 1231.23 409.162C1225.01 386.581 1219.02 348.071 1216.05 318.174C1213.68 294.365 1215.72 275.037 1218.42 260.864C1219.76 253.776 1221.28 247.972 1222.5 243.524C1222.71 242.751 1222.91 242.014 1223.11 241.316L1223.11 241.305C1223.47 240.012 1223.79 238.854 1224.05 237.854C1224.45 236.335 1224.75 235.038 1224.83 234.078C1224.92 233.135 1224.17 232.285 1223.16 232.18C1222.16 232.075 1221.28 232.754 1221.19 233.697C1221.13 234.352 1220.9 235.404 1220.5 236.947C1220.24 237.927 1219.93 239.046 1219.58 240.321L1219.57 240.341L1219.57 240.351C1219.38 241.047 1219.17 241.79 1218.96 242.582C1217.73 247.067 1216.19 252.963 1214.82 260.169C1212.07 274.586 1210.01 294.227 1212.41 318.4C1215.67 351.197 1222.58 394.606 1229.52 416.12C1209.75 456.829 1199.41 500.357 1194.58 539.047C1187.17 524.584 1174.67 495.615 1166.13 459.867C1156.18 418.289 1162.73 397.961 1166.06 389.424C1166.41 388.542 1165.92 387.544 1164.97 387.195C1164.02 386.847 1162.97 387.279 1162.63 388.162C1159.06 397.294 1152.46 418.291 1162.56 460.532C1172.23 500.963 1186.91 532.85 1193.85 545.248C1189.34 585.821 1190.81 620.456 1193.56 639.944C1193.7 640.888 1194.62 641.572 1195.62 641.473C1196.62 641.374 1197.32 640.529 1197.19 639.585C1194.5 620.561 1193.05 586.856 1197.31 547.291C1198.06 546.81 1198.31 545.856 1197.85 545.071C1197.77 544.934 1197.69 544.792 1197.61 544.648C1197.67 544.055 1197.74 543.462 1197.81 542.866C1213.41 533.91 1247.73 511.833 1270.91 488.756C1294.71 465.055 1305.3 447.37 1307.66 441.274C1308 440.39 1307.51 439.393 1306.56 439.048C1305.61 438.702 1304.56 439.139 1304.22 440.022C1302.1 445.515 1291.87 462.817 1268.22 486.36C1246.5 507.976 1214.75 528.805 1198.35 538.463C1203.22 500.165 1213.54 457.18 1233.14 417.036C1234.5 414.252 1235.84 411.475 1237.16 408.708C1260.16 387.988 1300.13 343.565 1324.36 315.645C1341.08 296.385 1349.52 283.672 1354.45 272.986C1358.36 264.515 1360.05 257.333 1361.92 249.372C1362.4 247.309 1362.9 245.194 1363.45 242.99C1363.68 242.072 1363.07 241.133 1362.09 240.892C1361.1 240.651 1360.12 241.199 1359.89 242.117C1359.32 244.399 1358.81 246.559 1358.32 248.643L1358.32 248.649L1358.32 248.664L1358.31 248.671L1358.31 248.674C1356.45 256.586 1354.85 263.396 1351.09 271.546C1346.34 281.834 1338.13 294.279 1321.51 313.429C1299.44 338.849 1264.56 377.694 1241.27 399.977C1263.35 352.509 1279.46 307.706 1287.98 267.427C1297.51 222.381 1297.59 182.835 1285.74 151.523C1266.87 101.669 1229.28 67.7971 1214.42 56.0168Z" fill="#F5EBDD" fill-opacity="0.3"/>
<path d="M1098.16 55.4076C1105.12 76.5319 1112.12 120.367 1115.42 153.504C1120.19 201.535 1107.2 231.523 1106.63 237.99" stroke="#F5EBDD" stroke-opacity="0.3" stroke-width="3.5472" stroke-linecap="round"/>
<path d="M1098.09 60.4567C1076.22 78.9069 1032.5 127.413 1006.6 157.258C973.232 195.706 973.249 207.628 967.827 229.315" stroke="#F5EBDD" stroke-opacity="0.3" stroke-width="3.5472" stroke-linecap="round"/>
<path d="M1134.29 -168.302C1139.75 -129.586 1140.17 -30.6408 1098.16 55.4068C1045.64 162.966 1022.15 258.053 1045.56 319.902C1064.29 369.381 1101.63 403.04 1116.38 414.74" stroke="#F5EBDD" stroke-opacity="0.3" stroke-width="3.5472" stroke-linecap="round"/>
<path d="M1133.41 -74.3058C1139.88 -63.2022 1155.32 -30.5066 1165.36 11.4462C1175.39 53.3991 1168.81 74.0824 1165.36 82.9258" stroke="#F5EBDD" stroke-opacity="0.3" stroke-width="3.5472" stroke-linecap="round"/>
<path d="M1134.2 -70.6057C1119.37 -62.2362 1083.78 -39.5858 1060.03 -15.9398C1036.28 7.70619 1025.85 25.218 1023.61 31.0181" stroke="#F5EBDD" stroke-opacity="0.3" stroke-width="3.5472" stroke-linecap="round"/>
<path d="M1360.9 411.799L1429.43 231.999C1434.03 227.97 1436.86 215.734 1366.12 184.47C1295.38 153.207 1268.14 155.93 1263.36 161.2L1224.28 249.625L1172.71 125.151C1212.7 97.1721 1220.47 75.7279 1207.51 66.4907C1172.54 48.6106 1106.4 86.9684 1092.19 95.5493C1090.46 96.5966 1088.85 97.7985 1087.5 99.3044C1082.68 104.656 1081.05 109.434 1080.54 112.116C1078.01 132.752 1130.51 138.442 1146.06 134.944L1199.83 304.637C1194.28 315.826 1183.36 338.68 1184.16 340.582C1185.49 345.061 1181.96 349.2 1180.03 350.71L1174.51 364.213C1168.04 368.793 1173.1 385.5 1245.07 415.689C1317.03 445.878 1345.02 445.034 1350.02 440.838C1352.71 435.045 1357.9 422.984 1357.1 421.082C1356.3 419.18 1359.3 414.101 1360.9 411.799Z" fill="url(#paint3_linear_2_1318)"/>
<path d="M1131.74 124.172C1145.57 129.556 1173.56 125.841 1182.07 119.297C1184.79 117.201 1187.02 115.372 1188.8 113.853C1192.58 110.625 1196.2 107.212 1199.69 103.675C1216.05 87.0728 1216.95 74.9139 1210.53 68.7128C1197.97 97.0629 1142.25 122.557 1131.74 124.172Z" fill="#E94B40" fill-opacity="0.7"/>
<path d="M1290.55 239.277C1295.96 201.627 1399.87 221.569 1429.92 233.189L1368.67 390.356C1270.52 384.727 1284.13 283.925 1290.55 239.277Z" fill="#BF3B2C"/>
<path d="M1262.86 160.012C1259.43 168.402 1278.37 191.954 1340.51 213.402C1384.32 231.301 1428.52 243.143 1432.12 229.654C1432.52 228.141 1432.81 226.473 1432.43 224.954C1430.02 215.296 1397.36 195.264 1354.99 177.956C1308.85 159.104 1266.28 151.622 1262.86 160.012Z" fill="#E64B3D"/>
<ellipse rx="27.3502" ry="6.38171" transform="matrix(-0.925727 -0.378192 -0.378192 0.925727 1306.4 178.784)" fill="#A32F24"/>
<path d="M1356.96 199.103C1367.16 203.609 1377.42 210.088 1383.12 209.791C1385.23 207.041 1390.36 200.736 1394.04 197.512C1398.64 193.483 1422.26 181.467 1441.49 192.274C1460.71 203.08 1477.59 220.164 1466.98 247.99C1458.34 270.642 1416.82 308.908 1393.45 324.312L1372.73 379.859C1374 380.38 1429.08 335.52 1461.02 309.285C1464.6 306.343 1467.91 303.068 1470.75 299.401C1520.14 235.494 1497.63 196.174 1460.61 169.559C1414.35 141.146 1343.51 193.166 1356.96 199.103Z" fill="#BF3B2A"/>
<path d="M1182.79 147.435L1216.37 227.478C1216.44 227.639 1216.45 227.819 1216.39 227.984L1211.73 241.472C1211.52 242.092 1210.65 242.114 1210.41 241.506L1173.26 149.498C1173.09 149.083 1173.35 148.617 1173.79 148.536L1182.01 147.012C1182.34 146.951 1182.66 147.127 1182.79 147.435Z" fill="#D54238"/>
<ellipse rx="8.5873" ry="2.6856" transform="matrix(-0.923646 0.383248 0.383248 0.923646 1150.47 81.3248)" fill="#922822"/>
<ellipse rx="8.5873" ry="2.6856" transform="matrix(-0.923646 0.383248 0.383248 0.923646 1164.2 100.724)" fill="#922822"/>
<ellipse rx="8.5873" ry="2.6856" transform="matrix(-0.923646 0.383248 0.383248 0.923646 1161.59 87.8395)" fill="#922822"/>
<ellipse rx="8.5873" ry="2.6856" transform="matrix(-0.923646 0.383248 0.383248 0.923646 1141.12 109.02)" fill="#922822"/>
<ellipse rx="8.5873" ry="2.6856" transform="matrix(-0.912499 0.409079 0.409079 0.912499 1111.73 108.957)" fill="#922822"/>
<ellipse rx="8.5873" ry="2.6856" transform="matrix(-0.923646 0.383248 0.383248 0.923646 1165.11 69.5802)" fill="#922822"/>
<ellipse rx="8.5873" ry="2.6856" transform="matrix(-0.923646 0.383248 0.383248 0.923646 1133.75 98.131)" fill="#922822"/>
<ellipse rx="8.5873" ry="2.6856" transform="matrix(-0.962747 0.270404 0.270404 0.962747 1119.03 119.694)" fill="#922822"/>
<ellipse rx="8.5873" ry="2.6856" transform="matrix(-0.923646 0.383248 0.383248 0.923646 1133.2 80.1818)" fill="#922822"/>
<ellipse rx="8.5873" ry="2.6856" transform="matrix(-0.923646 0.383248 0.383248 0.923646 1112.12 93.2316)" fill="#922822"/>
<ellipse rx="8.5873" ry="2.6856" transform="matrix(-0.97558 0.219643 0.219643 0.97558 1091.03 106.283)" fill="#922822"/>
<ellipse rx="8.5873" ry="2.6856" transform="matrix(-0.923646 0.383248 0.383248 0.923646 1181.92 86.295)" fill="#922822"/>
<ellipse rx="8.5873" ry="2.6856" transform="matrix(-0.923646 0.383248 0.383248 0.923646 1184.06 71.4132)" fill="#922822"/>
<path d="M231.975 1037.05C158.596 955.164 40.8812 775.617 16.3953 547.935C-17.7695 230.253 101.065 283.695 178.307 374.249C240.101 446.692 255.549 572.676 255.549 626.613C302.093 591.975 405.577 555.654 447.169 687.477C485.891 810.202 467.535 864.391 450.833 879.272C471.983 865.417 519.777 858.318 568.974 926.481C605.772 977.463 615.79 1040.26 615.907 1086.62C615.974 1112.99 590.918 1130 565.08 1124.73L288.963 1068.39C267.132 1063.93 246.845 1053.64 231.975 1037.05Z" fill="url(#paint4_linear_2_1318)"/>
<path d="M1050.14 751.005C1057.85 854.755 993.907 933.733 960.973 960.254C882.788 974.31 720.313 981.418 695.894 897.4C671.475 813.382 729.631 787.074 761.762 784.422C728.025 784.952 662.96 772.328 672.599 717.589C682.238 662.85 736.057 677.278 761.762 691.334C725.883 658.183 668.583 577.878 726.418 521.866C784.254 465.855 849.051 586.046 874.22 653.144C867.526 617.076 867.151 546.371 919.203 552.1C971.255 557.828 974.628 657.387 969.809 706.451C993.371 678.073 1042.42 647.256 1050.14 751.005Z" fill="url(#paint5_linear_2_1318)"/>
<path d="M477.199 594.288C470.567 683.425 525.555 751.28 553.879 774.065C621.118 786.141 760.846 792.248 781.846 720.064C802.847 647.88 752.832 625.276 725.2 622.998C754.214 623.454 810.17 612.608 801.88 565.579C793.59 518.549 747.306 530.945 725.2 543.021C756.056 514.539 805.334 445.545 755.596 397.422C705.857 349.299 650.132 452.563 628.486 510.21C634.243 479.222 634.566 418.476 589.801 423.397C545.036 428.319 542.135 513.856 546.28 556.009C526.016 531.628 483.83 505.152 477.199 594.288Z" fill="url(#paint6_linear_2_1318)"/>
<path d="M-78.9923 629.801C-85.624 718.937 -30.6355 786.792 -2.31223 809.578C64.9268 821.654 204.655 827.76 225.656 755.576C246.656 683.392 196.641 660.789 169.009 658.51C198.023 658.966 253.979 648.12 245.689 601.091C237.399 554.062 191.115 566.457 169.009 578.533C199.865 550.052 249.143 481.057 199.405 432.935C149.666 384.812 93.9409 488.075 72.2955 545.722C78.0522 514.734 78.3746 453.988 33.61 458.91C-11.1545 463.832 -14.0559 549.368 -9.91108 591.521C-30.1749 567.141 -72.3605 540.664 -78.9923 629.801Z" fill="url(#paint7_linear_2_1318)"/>
<path d="M-86.7497 1040.73C-119.777 935.847 -152.872 723.695 -81.2098 506.134C18.7829 202.564 104.945 300.272 137.914 414.645C164.29 506.143 126.366 627.315 104.106 676.463C160.786 664.096 270.015 673.68 253.488 810.955C238.102 938.755 199.022 980.563 177.671 987.235C202.649 983.333 249.104 996.576 265.775 1078.98C278.245 1140.61 261.451 1201.97 242.427 1244.26C231.606 1268.31 201.758 1273.47 180.394 1258L-47.7646 1092.81C-65.818 1079.74 -80.0553 1061.99 -86.7497 1040.73Z" fill="url(#paint8_linear_2_1318)"/>
<path d="M105.701 475.45C107.831 470.923 114.27 470.923 116.4 475.45L122.667 488.77C124.05 491.71 127.547 492.983 130.496 491.62L143.859 485.444C148.4 483.345 153.333 487.485 152.055 492.321L148.293 506.553C147.463 509.695 149.324 512.917 152.46 513.769L166.665 517.628C171.493 518.939 172.612 525.281 168.523 528.164L156.494 536.649C153.839 538.521 153.192 542.186 155.047 544.854L163.449 556.941C166.305 561.049 163.085 566.626 158.1 566.207L143.431 564.974C140.193 564.702 137.342 567.094 137.048 570.33L135.715 584.99C135.262 589.972 129.211 592.175 125.661 588.649L115.217 578.276C112.911 575.986 109.19 575.986 106.884 578.276L96.44 588.649C92.8903 592.175 86.8392 589.972 86.3861 584.99L85.0531 570.33C84.7588 567.094 81.9082 564.702 78.6702 564.974L64.0015 566.207C59.0161 566.626 55.7964 561.049 58.6519 556.941L67.054 544.854C68.9087 542.186 68.2625 538.521 65.6072 536.649L53.5777 528.164C49.4894 525.281 50.6076 518.939 55.4356 517.628L69.6414 513.769C72.7772 512.917 74.6378 509.695 73.8075 506.553L70.0462 492.321C68.7678 487.485 73.7008 483.345 78.2421 485.444L91.6046 491.62C94.5542 492.983 98.051 491.71 99.4343 488.77L105.701 475.45Z" fill="url(#paint9_linear_2_1318)"/>
<path d="M-154.185 902.993C-115.549 983.594 -34.073 1015.05 1.83524 1020.71C66.1581 997.699 190.37 933.413 172.636 860.358C154.902 787.303 100.274 792.607 75.1764 804.392C100.564 790.339 143.688 753.069 113.08 716.414C82.4716 679.758 48.5067 713.556 35.3502 735.036C47.9254 694.972 56.3016 610.601 -10.795 593.638C-77.8917 576.674 -74.794 693.973 -64.8581 754.743C-75.2972 725.004 -105.267 672.165 -141.636 698.725C-178.005 725.284 -137.926 800.906 -113.341 835.396C-143.054 824.345 -192.822 822.392 -154.185 902.993Z" fill="url(#paint10_linear_2_1318)"/>
<path d="M105.533 859.423C141.233 895.133 168.079 850.282 177.789 811.716C181.787 799.527 187.385 770.75 177.789 753.152C165.794 731.155 134.378 745.439 105.533 775.149C76.6882 804.859 69.8339 823.714 105.533 859.423Z" fill="url(#paint11_linear_2_1318)"/>
<path d="M379.188 694.131C353.743 719.723 334.608 687.58 327.687 659.941C324.837 651.205 320.847 630.582 327.687 617.97C336.237 602.206 358.629 612.442 379.188 633.735C399.748 655.027 404.634 668.539 379.188 694.131Z" fill="url(#paint12_linear_2_1318)"/>
<path d="M-35.7126 991.657C-42.5062 988.267 -19.1062 973.108 -6.55706 965.952C-18.6344 965.952 -42.676 962.958 -42.2231 950.981C-41.7702 939.004 -15.2377 945.991 -2.02801 950.981C-13.2562 942.883 -34.1275 925.163 -27.7868 919.062C-21.4462 912.96 -3.82074 926.877 4.1994 934.598C-1.27317 922.922 -10.1803 898.611 -2.02801 894.769C6.12423 890.928 16.0881 914.448 20.051 926.688C20.051 916.049 22.7684 894.035 33.638 891.097C44.5077 888.159 38.1671 916.049 33.638 930.361C39.5824 922.075 54.1319 905.051 64.7751 903.243C75.4183 901.436 57.3211 926.218 46.942 938.835C57.4154 931.208 80.1171 918.101 87.1371 926.688C94.1571 935.276 71.946 946.461 59.963 950.981C73.7388 949.286 100.724 948.495 98.4597 958.89C96.1952 969.285 71.8517 967.929 59.963 965.952C69.021 976.403 85.3821 998.719 78.3621 1004.37C71.3422 1010.02 54.4904 990.15 46.942 979.511C51.4711 992.033 58.7175 1018.55 51.4711 1024.42C44.2246 1030.3 36.563 1001.64 33.638 986.572C34.5816 1000.6 34.1476 1027.81 24.8631 1024.42C15.5786 1021.03 17.7865 997.777 20.051 986.572C11.1816 997.965 -7.68931 1018.77 -12.2183 1010.86C-16.7473 1002.96 -3.16026 986.666 4.1994 979.511C-6.27398 984.972 -28.9191 995.046 -35.7126 991.657Z" fill="url(#paint13_linear_2_1318)"/>
<path d="M1249.7 978.563C1322.69 897.149 1439.66 718.844 1464 492.772C1497.98 177.164 1379.78 230.257 1302.96 320.22C1241.49 392.191 1226.13 517.352 1226.13 570.937C1179.84 536.525 1076.91 500.441 1035.54 631.404C997.024 753.328 1015.28 807.163 1031.89 821.947C1010.86 808.183 963.319 801.13 914.386 868.847C877.863 919.391 867.864 981.62 867.706 1027.65C867.615 1054.01 892.662 1071.01 918.493 1065.75L1192.74 1009.86C1214.55 1005.41 1234.83 995.142 1249.7 978.563Z" fill="url(#paint14_linear_2_1318)"/>
<path d="M1245.3 664.696C1287.98 691.666 1304.29 642.004 1305.27 602.247C1306.49 589.476 1305.61 560.173 1292.38 545.121C1275.83 526.306 1248.33 547.157 1226.74 582.49C1205.14 617.824 1202.61 637.725 1245.3 664.696Z" fill="url(#paint15_linear_2_1318)"/>
<path d="M1322.7 507.165C1300.28 523.677 1289.36 497.007 1287.26 475.18C1286.09 468.205 1285.42 452.055 1292.1 443.256C1300.46 432.258 1316.4 442.643 1329.67 461.226C1342.94 479.808 1345.11 490.653 1322.7 507.165Z" fill="url(#paint16_linear_2_1318)"/>
<path d="M825.562 1169.72C860.559 1126.01 907.305 1046.45 917.884 948.236C934.325 795.616 877.14 821.291 839.97 864.795C810.233 899.598 802.799 960.123 802.799 986.035C780.402 969.394 730.603 951.945 710.589 1015.27C691.955 1074.23 700.788 1100.27 708.826 1107.42C698.648 1100.76 675.649 1097.35 651.974 1130.1C640.255 1146.31 634.181 1165 631.396 1182.25C627.193 1208.27 652.361 1225.64 678.19 1220.38L769.415 1201.8C791.228 1197.35 811.648 1187.09 825.562 1169.72Z" fill="url(#paint17_linear_2_1318)"/>
<path d="M527.326 1076.29C500.518 1041.1 467.277 981.448 459.426 908.734C446.53 789.292 491.385 809.385 520.541 843.431C543.865 870.668 549.697 918.036 549.697 938.315C567.265 925.292 606.326 911.636 622.026 961.199C636.641 1007.34 629.713 1027.71 623.408 1033.31C631.392 1028.1 649.432 1025.43 668.002 1051.06C674.926 1060.61 679.338 1071.27 682.028 1081.72C688.595 1107.23 663.168 1124.91 637.353 1119.66L583.041 1108.63C561.253 1104.2 540.8 1093.98 527.326 1076.29Z" fill="url(#paint18_linear_2_1318)"/>
<path d="M791.856 872.798C678.272 986.808 592.857 843.612 561.962 720.481C549.241 681.566 531.431 589.689 561.962 533.505C600.126 463.275 700.08 508.879 791.856 603.735C883.632 698.591 905.44 758.788 791.856 872.798Z" fill="url(#paint19_linear_2_1318)"/>
<path d="M1138.54 759.84C1131.74 756.45 1155.14 741.291 1167.69 734.135C1155.61 734.135 1131.57 731.141 1132.03 719.164C1132.48 707.187 1159.01 714.174 1172.22 719.164C1160.99 711.067 1140.12 693.346 1146.46 687.245C1152.8 681.143 1170.43 695.06 1178.45 702.781C1172.98 691.105 1164.07 666.794 1172.22 662.952C1180.37 659.111 1190.34 682.631 1194.3 694.872C1194.3 684.232 1197.02 662.218 1207.89 659.28C1218.76 656.343 1212.42 684.232 1207.89 698.544C1213.83 690.258 1228.38 673.234 1239.02 671.426C1249.67 669.619 1231.57 694.401 1221.19 707.018C1231.66 699.391 1254.37 686.284 1261.39 694.872C1268.41 703.459 1246.19 714.645 1234.21 719.164C1247.99 717.469 1274.97 716.678 1272.71 727.073C1270.44 737.468 1246.1 736.112 1234.21 734.135C1243.27 744.586 1259.63 766.902 1252.61 772.551C1245.59 778.201 1228.74 758.333 1221.19 747.694C1225.72 760.217 1232.97 786.731 1225.72 792.607C1218.47 798.482 1210.81 769.821 1207.89 754.755C1208.83 768.785 1208.4 795.996 1199.11 792.607C1189.83 789.217 1192.03 765.96 1194.3 754.755C1185.43 766.148 1166.56 786.957 1162.03 779.048C1157.5 771.139 1171.09 754.85 1178.45 747.694C1167.97 753.155 1145.33 763.23 1138.54 759.84Z" fill="url(#paint20_linear_2_1318)"/>
<path d="M599.948 1030.1C596.76 1028.51 607.74 1021.42 613.629 1018.07C607.962 1018.07 596.681 1016.67 596.893 1011.07C597.106 1005.47 609.556 1008.74 615.754 1011.07C610.485 1007.28 600.692 998.993 603.667 996.139C606.642 993.285 614.913 999.795 618.676 1003.41C616.108 997.945 611.929 986.574 615.754 984.777C619.579 982.98 624.255 993.981 626.114 999.707C626.114 994.73 627.389 984.433 632.49 983.059C637.59 981.685 634.615 994.73 632.49 1001.42C635.279 997.549 642.106 989.586 647.1 988.74C652.094 987.895 643.602 999.486 638.732 1005.39C643.647 1001.82 654.299 995.69 657.593 999.707C660.887 1003.72 650.465 1008.96 644.842 1011.07C651.306 1010.28 663.968 1009.91 662.906 1014.77C661.843 1019.63 650.421 1019 644.842 1018.07C649.092 1022.96 656.769 1033.4 653.475 1036.04C650.181 1038.68 642.274 1029.39 638.732 1024.41C640.857 1030.27 644.258 1042.67 640.857 1045.42C637.457 1048.17 633.862 1034.76 632.49 1027.72C632.932 1034.28 632.729 1047.01 628.372 1045.42C624.015 1043.84 625.051 1032.96 626.114 1027.72C621.952 1033.05 613.097 1042.78 610.972 1039.08C608.847 1035.38 615.223 1027.76 618.676 1024.41C613.762 1026.97 603.136 1031.68 599.948 1030.1Z" fill="url(#paint21_linear_2_1318)"/>
<path d="M959.589 250.151C956.401 248.566 967.381 241.475 973.27 238.128C967.603 238.128 956.322 236.727 956.534 231.125C956.747 225.523 969.197 228.791 975.395 231.125C970.126 227.338 960.333 219.049 963.308 216.195C966.284 213.342 974.554 219.851 978.317 223.462C975.749 218.001 971.57 206.63 975.395 204.833C979.22 203.036 983.896 214.037 985.755 219.763C985.755 214.786 987.03 204.489 992.131 203.115C997.231 201.741 994.256 214.786 992.131 221.48C994.92 217.605 1001.75 209.642 1006.74 208.797C1011.74 207.951 1003.24 219.543 998.373 225.444C1003.29 221.877 1013.94 215.746 1017.23 219.763C1020.53 223.779 1010.11 229.011 1004.48 231.125C1010.95 230.333 1023.61 229.963 1022.55 234.825C1021.48 239.687 1010.06 239.053 1004.48 238.128C1008.73 243.017 1016.41 253.454 1013.12 256.097C1009.82 258.739 1001.92 249.447 998.373 244.47C1000.5 250.327 1003.9 262.729 1000.5 265.478C997.098 268.226 993.503 254.82 992.131 247.773C992.573 254.335 992.37 267.063 988.013 265.478C983.657 263.892 984.693 253.014 985.755 247.773C981.593 253.102 972.739 262.835 970.613 259.136C968.488 255.436 974.864 247.817 978.317 244.47C973.403 247.024 962.777 251.737 959.589 250.151Z" fill="url(#paint22_linear_2_1318)"/>
<path d="M1296.48 21.5848C1293.29 19.9993 1304.27 12.9087 1310.16 9.56156C1304.49 9.56156 1293.21 8.16105 1293.43 2.55901C1293.64 -3.04303 1306.09 0.224829 1312.29 2.55901C1307.02 -1.22852 1297.22 -9.51707 1300.2 -12.3709C1303.18 -15.2248 1311.45 -8.71553 1315.21 -5.10415C1312.64 -10.5653 1308.46 -21.9367 1312.29 -23.7336C1316.11 -25.5305 1320.79 -14.529 1322.65 -8.8036C1322.65 -13.7803 1323.92 -24.0771 1329.02 -25.4512C1334.12 -26.8253 1331.15 -13.7803 1329.02 -7.086C1331.81 -10.9616 1338.64 -18.9243 1343.63 -19.7699C1348.63 -20.6155 1340.14 -9.02381 1335.27 -3.12228C1340.18 -6.68962 1350.83 -12.8202 1354.13 -8.8036C1357.42 -4.78704 1347 0.445042 1341.37 2.55901C1347.84 1.76627 1360.5 1.39632 1359.44 6.25847C1358.38 11.1206 1346.95 10.4864 1341.37 9.56156C1345.63 14.4501 1353.3 24.8879 1350.01 27.5304C1346.71 30.1728 1338.81 20.8801 1335.27 15.9035C1337.39 21.761 1340.79 34.163 1337.39 36.9111C1333.99 39.6593 1330.39 26.2532 1329.02 19.2066C1329.47 25.7687 1329.26 38.4966 1324.9 36.9111C1320.55 35.3257 1321.58 24.4475 1322.65 19.2066C1318.49 24.5356 1309.63 34.2687 1307.51 30.5692C1305.38 26.8697 1311.76 19.2506 1315.21 15.9035C1310.29 18.4579 1299.67 23.1703 1296.48 21.5848Z" fill="url(#paint23_linear_2_1318)"/>
<path d="M1540.43 982.14C1573.25 877.807 1606.06 667.031 1534.87 450.884C1435.46 149.103 1349.81 246.236 1317.03 359.934C1290.81 450.893 1328.52 571.35 1350.64 620.209C1294.3 607.914 1185.71 617.442 1202.14 753.907C1217.44 880.954 1256.29 922.516 1277.51 929.148C1252.68 925.269 1206.5 938.434 1189.93 1020.35C1177.56 1081.5 1194.16 1142.37 1213.02 1184.4C1223.82 1208.46 1253.67 1213.62 1275.03 1198.15L1501.46 1034.22C1519.51 1021.15 1533.75 1003.4 1540.43 982.14Z" fill="url(#paint24_linear_2_1318)"/>
<path d="M1588.7 831.202C1586.61 919.037 1526.29 980.126 1496.39 999.691C1429.45 1005.04 1292.17 997.567 1278.58 924.933C1264.98 852.299 1316.08 834.999 1343.33 835.428C1314.9 833.083 1261.21 817.09 1273.84 771.881C1286.47 726.673 1330.56 743.251 1351.02 757.191C1323.58 726.361 1282.01 654.127 1335.29 611.836C1388.58 569.545 1433.16 675.923 1448.79 734.398C1446.14 703.53 1451.67 644.075 1494.98 653.196C1538.3 662.317 1532.91 746.272 1524.8 787.109C1546.97 765.209 1590.78 743.367 1588.7 831.202Z" fill="url(#paint25_linear_2_1318)"/>
<path d="M1291.1 638.73C1280.44 611.409 1321.25 601.684 1338.87 596.591C1319.08 596.591 1279.69 591.682 1280.44 572.048C1281.18 552.413 1324.65 563.867 1346.29 572.048C1327.9 558.773 1291.1 538.243 1304.09 519.72C1312.37 507.915 1343.36 532.532 1356.5 545.189C1347.53 526.049 1324.03 490.392 1346.29 479.896C1359.65 473.598 1375.98 512.157 1382.47 532.223C1382.47 514.781 1382.47 464.614 1404.73 473.876C1421.76 480.962 1412.15 514.781 1404.73 538.243C1414.47 524.66 1433.95 479.896 1455.75 493.788C1470.66 503.291 1443.53 531.452 1426.53 552.136C1443.69 539.633 1480.89 518.146 1492.39 532.223C1503.89 546.301 1467.5 564.639 1447.86 572.048C1470.43 569.269 1514.65 567.973 1510.94 585.014C1507.23 602.055 1467.34 599.832 1447.86 596.591C1472.91 611.409 1503.89 639.656 1492.39 648.918C1480.89 658.179 1438.9 636.261 1426.53 618.818C1433.95 639.348 1445.82 682.815 1433.95 692.447C1422.08 702.079 1409.52 655.092 1404.73 630.395C1406.28 653.394 1405.57 698.004 1390.35 692.447C1375.14 686.89 1378.76 648.764 1382.47 630.395C1367.94 649.072 1337.02 683.186 1329.6 670.219C1322.18 657.253 1344.44 630.549 1356.5 618.818C1339.34 627.771 1295.62 650.307 1291.1 638.73Z" fill="url(#paint26_linear_2_1318)"/>
<path d="M726.598 895.188C725.737 933.984 703.213 951.793 689.166 957.136C686.944 957.981 684.515 957.099 683.08 955.203C675.442 945.115 659.159 923.785 639.58 898.661C612.185 863.506 618.924 815.385 625.271 784.956C631.617 754.527 594.284 715.892 574.638 684.955C554.992 654.017 566.308 625.328 588.802 628.478C606.798 630.998 624.719 664.826 631.43 681.425C631.901 675.575 629.647 658.418 616.859 636.583C600.873 609.29 605.336 584.861 622.251 575.746C635.783 568.455 652.658 589.4 659.404 600.784C660.57 599.903 664.451 598.986 670.651 602.359C676.851 605.733 679.286 610.18 679.729 611.982C691.764 598.008 719.662 571.015 734.974 574.83C750.287 578.644 755.732 602.791 756.541 614.388C762.484 616.612 774.437 623.575 774.696 633.633C774.956 643.691 757.539 661.852 748.798 669.676C752.846 673.026 759.351 685.142 752.981 706.799C745.02 733.871 736.429 743.107 740.394 752.013C744.359 760.92 751.822 767.185 740.65 794.851C729.478 822.516 727.776 842.112 726.598 895.188Z" fill="#4A9B52"/>
<path d="M691.937 869.72C693.274 890.013 686.202 898.238 682.499 899.814C682.259 901.526 680.079 903.664 673.278 898.522C666.476 893.381 672.745 879.948 676.73 873.874C672.883 856.58 665.823 817.474 668.355 799.398C671.519 776.804 626.617 724.439 642.453 738.176C655.122 749.166 664.077 765.29 666.971 771.978L665.3 746.612C666.63 752.034 670.674 766.423 676.211 780.602C681.747 794.781 681.74 828.15 681.045 843.063C682.543 837.338 685.532 822.957 685.503 811.225C685.468 796.559 681.011 768.708 677.47 756.694C674.637 747.082 671.245 724.057 669.903 713.747L684.463 744.06C684.061 739.466 682.637 727.258 680.149 715.182C677.662 703.105 673.685 684.257 672.007 676.343L683.745 689.506L694.01 638.585C693.345 645.822 691.788 663.406 690.882 675.845C689.975 688.284 692.708 705.073 694.188 711.912C695.153 707.509 697.396 694.978 698.647 680.074C700.211 661.444 722.053 617.38 715.815 639.544C710.825 657.276 707.791 689.383 706.897 703.22L730.519 668.83C726.839 680.183 717.147 706.122 707.814 719.056C696.147 735.224 696.937 759.42 699.759 776.57C702.581 793.72 690.266 844.354 691.937 869.72Z" fill="white"/>
<path d="M726.598 895.188C725.737 933.984 703.213 951.793 689.166 957.136C686.944 957.981 684.515 957.099 683.08 955.203C675.442 945.115 659.159 923.785 639.58 898.661C612.185 863.506 618.924 815.385 625.271 784.956C631.617 754.527 594.284 715.892 574.638 684.955C554.992 654.017 566.308 625.328 588.802 628.478C606.798 630.998 624.719 664.826 631.43 681.425C631.901 675.575 629.647 658.418 616.859 636.583C600.873 609.29 605.336 584.861 622.251 575.746C635.783 568.455 652.658 589.4 659.404 600.784C660.57 599.903 664.451 598.986 670.651 602.359C676.851 605.733 679.286 610.18 679.729 611.982C691.764 598.008 719.662 571.015 734.974 574.83C750.287 578.644 755.732 602.791 756.541 614.388C762.484 616.612 774.437 623.575 774.696 633.633C774.956 643.691 757.539 661.852 748.798 669.676C752.846 673.027 759.351 685.142 752.981 706.799C745.02 733.871 736.429 743.107 740.394 752.013C744.359 760.92 751.822 767.185 740.65 794.851C729.478 822.516 727.776 842.112 726.598 895.188Z" fill="url(#paint27_linear_2_1318)"/>
<path d="M691.937 869.721C693.274 890.014 686.202 898.239 682.499 899.814C682.259 901.526 680.079 903.664 673.278 898.523C666.476 893.382 672.745 879.948 676.73 873.874C672.883 856.581 665.823 817.475 668.355 799.399C671.519 776.804 626.617 724.44 642.453 738.177C655.122 749.166 664.077 765.29 666.971 771.979L665.3 746.612C666.63 752.034 670.674 766.424 676.211 780.603C681.747 794.782 681.74 828.151 681.045 843.063C682.543 837.339 685.532 822.957 685.503 811.225C685.468 796.56 681.011 768.709 677.47 756.694C674.637 747.082 671.245 724.058 669.903 713.747L684.463 744.06C684.061 739.466 682.637 727.259 680.149 715.182C677.662 703.105 673.685 684.258 672.007 676.344L683.745 689.506L694.01 638.585C693.345 645.822 691.788 663.406 690.882 675.845C689.975 688.285 692.708 705.073 694.188 711.913C695.153 707.51 697.396 694.979 698.647 680.075C700.212 661.444 722.053 617.38 715.815 639.545C710.825 657.276 707.791 689.383 706.897 703.221L730.519 668.83C726.839 680.183 717.147 706.122 707.814 719.057C696.147 735.225 696.937 759.42 699.759 776.57C702.581 793.72 690.266 844.355 691.937 869.721Z" fill="url(#paint28_linear_2_1318)"/>
<path d="M275.365 1080.33C349.579 1037.63 462.992 972.265 481.484 960.516C509.386 942.821 540.384 863.283 541.142 834.186C541.901 805.09 541.142 779.603 520.908 788.01C503.605 795.207 495.138 835.765 495.138 835.765C495.138 835.765 486.937 767.218 492.616 753.316C498.295 739.413 546.924 662.91 551.803 648.434C556.682 633.958 551.803 610.992 532.142 618.743C532.142 618.743 537.186 595.614 526.586 588.806C515.987 581.999 500.755 591.554 493.949 599.735C493.024 597.212 491.478 594.962 489.453 593.195C487.428 591.428 484.991 590.201 482.365 589.626C473.509 587.925 450.548 601.478 432.937 624.813C432.937 624.813 417.848 619.338 402.739 633.343C387.629 647.347 364.504 679.396 358.374 707.857C352.244 736.317 342.322 826.046 343.367 833.489C344.003 838 243.342 876.139 154.449 911.182C128.433 921.434 -136.668 1009.6 -189.336 1068.39C-242.003 1127.18 -316.443 1243.46 -60.178 1325.44C196.087 1407.42 255.54 1341.1 255.54 1341.1L256.914 1170.24L188.337 1134.74C188.337 1134.74 255.602 1091.68 275.365 1080.33Z" fill="url(#paint29_linear_2_1318)"/>
<path d="M503.709 785.48C527.952 806.871 519.562 844.543 495.153 858.209C470.744 871.875 439.511 856.541 425.275 831.114C411.039 805.687 413.701 769.199 438.11 755.533C462.519 741.866 490.874 755.533 503.709 785.48Z" fill="url(#paint30_linear_2_1318)"/>
<path d="M572.518 844.567C600.096 827.692 633.631 846.798 639.509 874.148C645.386 901.498 621.539 926.834 593.049 932.957C564.558 939.079 530.469 925.797 524.592 898.447C518.714 871.098 540.12 848.02 572.518 844.567Z" fill="url(#paint31_linear_2_1318)"/>
<path fill-rule="evenodd" clip-rule="evenodd" d="M504.312 780.214L550.321 767.069C550.609 766.986 550.855 766.797 551.01 766.54L563.302 746.052C563.493 745.735 563.524 745.35 563.39 745.006C561.432 739.966 557.9 729.002 557.9 721.306V685.961C557.9 685.756 557.954 685.56 558.056 685.382L561.694 679.015C562.272 678.003 563.814 678.346 563.909 679.507C565.509 699.056 568.96 733.084 572.161 738.419C576.439 745.549 569.308 771.218 563.604 781.201C559.192 788.923 555.312 799.045 553.771 803.574C553.674 803.859 553.693 804.17 553.82 804.444L571.086 841.634L573.401 841.602C573.441 841.601 573.48 841.59 573.515 841.571L601.681 825.438L579.46 842.139C579.31 842.252 579.345 842.487 579.522 842.55L610.618 853.77C610.871 853.862 610.8 854.236 610.532 854.229L574.975 853.304C574.825 853.301 574.71 853.436 574.737 853.583L578.539 874.375C578.585 874.627 578.254 874.762 578.11 874.551L566.947 858.125C566.877 858.023 566.74 857.992 566.633 858.054L546.624 869.646C546.381 869.786 546.139 869.461 546.344 869.269L564.488 852.19C564.624 852.062 564.565 851.835 564.385 851.788L528.993 842.693C528.726 842.625 528.773 842.232 529.049 842.228L562.508 841.756L543.868 804.476C543.722 804.184 543.703 803.844 543.816 803.538L552.878 778.942C553.2 778.067 552.43 777.18 551.518 777.378L506.418 787.129L525.1 811.149L505.444 791.493C505.311 791.36 505.084 791.428 505.046 791.612L498.303 823.976C498.248 824.239 497.867 824.222 497.837 823.955L493.76 788.621C493.742 788.472 493.592 788.376 493.45 788.424L473.398 795.108C473.155 795.189 472.975 794.88 473.164 794.708L487.859 781.349C487.951 781.266 487.963 781.126 487.886 781.028L473.6 762.846C473.426 762.625 473.714 762.339 473.933 762.515L493.391 778.081C493.536 778.197 493.753 778.108 493.774 777.922L497.809 741.604C497.839 741.33 498.235 741.321 498.278 741.594L504.312 780.214Z" fill="#4A9B52"/>
<path d="M434.698 631.984C436.792 636.406 437.142 641.434 435.68 646.095C434.194 650.697 432.172 655.114 429.655 659.261C417.199 681.771 405.662 706.025 406.26 731.643" stroke="#6A493C" stroke-width="10.6416" stroke-linecap="round" stroke-linejoin="round"/>
<path d="M494.819 604.903C495.83 609.745 493.54 614.961 491.27 619.325C488.799 623.594 485.94 627.622 482.729 631.358C458.932 661.533 442.725 697.052 435.485 734.893" stroke="#6A493C" stroke-width="10.6416" stroke-linecap="round" stroke-linejoin="round"/>
<path d="M526.479 626.567C523.287 640.834 515.527 653.579 506.87 665.173C498.213 676.768 488.498 687.56 480.558 699.709C472.619 711.858 466.375 725.693 465.817 740.309" stroke="#6A493C" stroke-width="10.6416" stroke-linecap="round" stroke-linejoin="round"/>
<path d="M1120.98 1080.33C1046.77 1037.63 933.358 972.265 914.866 960.516C886.964 942.821 855.966 863.283 855.207 834.186C854.449 805.09 855.207 779.603 875.442 788.01C892.745 795.207 901.212 835.765 901.212 835.765C901.212 835.765 909.413 767.218 903.734 753.316C898.055 739.413 849.426 662.91 844.547 648.434C839.668 633.958 844.547 610.992 864.207 618.743C864.207 618.743 859.164 595.614 869.763 588.806C880.362 581.999 895.595 591.554 902.401 599.735C903.326 597.212 904.872 594.962 906.897 593.195C908.921 591.428 911.359 590.201 913.984 589.626C922.841 587.925 945.802 601.478 963.413 624.813C963.413 624.813 978.502 619.338 993.611 633.343C1008.72 647.347 1031.85 679.396 1037.98 707.857C1044.11 736.317 1054.03 826.046 1052.98 833.489C1052.35 838 1153.01 876.139 1241.9 911.182C1267.92 921.434 1533.02 1009.6 1585.69 1068.39C1638.35 1127.18 1712.79 1243.46 1456.53 1325.44C1200.26 1407.42 1140.81 1341.1 1140.81 1341.1L1139.44 1170.24L1208.01 1134.74C1208.01 1134.74 1140.75 1091.68 1120.98 1080.33Z" fill="url(#paint32_linear_2_1318)"/>
<path d="M1134.19 612.369C1153.8 609.575 1142.36 584.045 1134.19 571.629C1129.13 563.869 1116.45 551.375 1106.18 563.481C1093.34 578.613 1109.68 615.861 1134.19 612.369Z" fill="#353535"/>
<path d="M1080.36 677.415C1097.73 687.695 1104.97 660.062 1106.41 644.961C1107.36 635.554 1105.27 617.513 1089.37 620.606C1069.49 624.473 1058.66 664.566 1080.36 677.415Z" fill="#353535"/>
<path d="M1090.5 538.528C1102.82 545.823 1107.96 526.213 1108.98 515.496C1109.65 508.82 1108.17 496.017 1096.89 498.213C1082.78 500.957 1075.09 529.409 1090.5 538.528Z" fill="#353535"/>
<path d="M1057.2 608.982C1069.53 616.277 1074.66 596.667 1075.69 585.951C1076.36 579.275 1074.88 566.472 1063.59 568.667C1049.49 571.411 1041.8 599.864 1057.2 608.982Z" fill="#353535"/>
<path d="M1048.3 650.005C1044.5 636.199 1027.19 646.743 1019 653.741C1013.89 658.08 1006.06 668.321 1015.71 674.577C1027.76 682.397 1053.05 667.263 1048.3 650.005Z" fill="#353535"/>
<path d="M797.706 888.636C794.692 903.198 779.743 921.503 772.645 928.834C775.326 933.023 781.116 940.069 782.834 934.745C784.98 928.09 808.113 900.39 818.122 888.924C828.131 877.458 846.149 875.398 854.487 870.74C862.826 866.082 885.93 866.187 893.639 861.852C901.347 857.516 925.776 863.296 940.065 867.905C954.354 872.514 973.406 878.659 975.876 872.633C978.345 866.608 956.217 853.697 942.59 851.926C931.688 850.509 913.184 854.511 905.295 856.69C910.679 851.954 924.306 840.465 935.742 832.398C950.038 822.315 964.415 820.13 965.455 813.643C966.496 807.157 952.732 807.44 931.106 812.535C913.805 816.611 900.369 824.138 895.814 827.392C898.532 824.944 903.225 818.761 900.261 813.607C896.554 807.163 884.64 818.015 873.816 827.118C862.992 836.222 853.733 843.732 859.181 834.993C864.629 826.254 884.05 806.803 890.62 799.476C897.19 792.149 893.638 785.23 895.856 770.202C898.074 755.173 906.895 735.977 894.528 733.562C882.16 731.147 877.182 754.732 866.39 766.995C855.599 779.258 850.33 805.373 850.598 815.956C850.865 826.538 836.799 858.737 830.858 865.742C824.917 872.748 825.175 867.058 825.247 858.684C825.318 850.311 830.936 842.676 835.754 834.259C840.573 825.842 835.252 816.254 836.785 811.5C838.318 806.747 846.017 786.139 849.818 771.096C853.618 756.053 850.865 749.917 839.339 767.716C827.813 785.515 817.951 811.198 820.868 833.131C823.202 850.677 813.561 866.111 808.449 871.634C809.398 866.517 811.845 854.257 814.04 846.148C816.784 836.012 810.018 824.383 804.384 830.438C798.75 836.493 801.474 870.434 797.706 888.636Z" fill="url(#paint33_linear_2_1318)"/>
<path d="M791.006 725.903C789.399 721.753 787.42 708.097 791.237 682.853C795.046 657.658 802.434 609.165 806.023 585.64C806.177 584.632 807.447 584.29 808.099 585.074L813.169 591.174C813.398 591.45 813.493 591.801 813.42 592.153C812.167 598.262 810.721 605.471 809.206 613.24L814.439 629.7C814.495 629.875 814.509 630.061 814.48 630.243L802.712 704.731L824.59 598.249C824.687 597.775 825.063 597.409 825.539 597.323L832.15 596.134C832.998 595.982 833.719 596.758 833.505 597.593L807.517 698.62L830.767 630.708C831.136 629.631 832.665 629.646 833.012 630.731L836.653 642.108C836.739 642.378 836.726 642.669 836.616 642.929L818.532 685.699C817.964 687.042 819.856 688.022 820.625 686.783L831.079 669.947C831.152 669.829 831.204 669.698 831.232 669.561L841.893 617.673C842.133 616.505 843.755 616.386 844.162 617.506L847.156 625.733C847.231 625.938 847.247 626.161 847.203 626.375L837.342 674.37C837.315 674.504 837.264 674.632 837.193 674.749L803.112 730.439C802.803 730.944 802.169 731.143 801.628 730.905L791.594 726.499C791.327 726.382 791.111 726.174 791.006 725.903Z" fill="url(#paint34_linear_2_1318)"/>
<path d="M737.755 874.063C732.876 894.355 736.189 923.428 738.456 935.428C739.008 938.499 740.548 945.972 742.293 951.299C744.474 957.958 751.028 943.334 758.654 919.171C766.28 895.007 787.376 870.062 804.04 845.093C820.704 820.125 832.073 764.789 829.11 744.661C826.148 724.533 791.967 709.525 772.119 724.079C752.27 738.634 753.438 776.138 748.342 805.258C743.246 834.378 743.853 848.698 737.755 874.063Z" fill="url(#paint35_linear_2_1318)"/>
<path d="M174.957 833.434C154.369 830.473 166.379 803.411 174.957 790.25C180.268 782.024 193.585 768.781 204.369 781.613C217.85 797.653 200.693 837.136 174.957 833.434Z" fill="#F5EBDD"/>
<path d="M231.322 901.749C213.131 912.517 205.548 883.569 204.03 867.749C203.041 857.894 205.228 838.993 221.886 842.234C242.709 846.285 254.061 888.288 231.322 901.749Z" fill="#F5EBDD"/>
<path d="M220.706 756.248C207.797 763.89 202.415 743.346 201.338 732.119C200.637 725.125 202.188 711.713 214.01 714.013C228.787 716.888 236.844 746.695 220.706 756.248Z" fill="#F5EBDD"/>
<path d="M255.585 830.057C242.675 837.699 237.294 817.156 236.217 805.929C235.515 798.935 237.067 785.522 248.889 787.822C263.666 790.697 271.722 820.504 255.585 830.057Z" fill="#F5EBDD"/>
<path d="M264.91 873.032C268.893 858.569 287.031 869.615 295.602 876.946C300.963 881.491 309.16 892.221 299.056 898.774C286.426 906.967 259.931 891.112 264.91 873.032Z" fill="#F5EBDD"/>
<path d="M962.669 631.984C960.649 636.406 960.312 641.434 961.721 646.095C963.154 650.697 965.104 655.114 967.531 659.261C979.542 681.771 990.667 706.025 990.09 731.643" stroke="#6A493C" stroke-width="10.6416" stroke-linecap="round" stroke-linejoin="round"/>
<path d="M901.531 605.986C900.52 610.788 902.81 615.96 905.08 620.288C907.551 624.521 910.41 628.516 913.621 632.221C937.418 662.144 953.625 697.367 960.864 734.893" stroke="#6A493C" stroke-width="10.6416" stroke-linecap="round" stroke-linejoin="round"/>
<path d="M869.871 627.651C873.062 641.781 880.822 654.405 889.48 665.889C898.137 677.373 907.852 688.062 915.791 700.096C923.731 712.129 929.974 725.832 930.533 740.309" stroke="#6A493C" stroke-width="10.6416" stroke-linecap="round" stroke-linejoin="round"/>
</g>
<defs>
<linearGradient id="paint0_linear_2_1318" x1="1224.63" y1="66.081" x2="1309.24" y2="440.826" gradientUnits="userSpaceOnUse">
<stop stop-color="#F5D3DA"/>
<stop offset="1" stop-color="#F9D29C" stop-opacity="0.1"/>
</linearGradient>
<linearGradient id="paint1_linear_2_1318" x1="1101.65" y1="120.747" x2="1387.35" y2="595.316" gradientUnits="userSpaceOnUse">
<stop stop-color="#0F6B43"/>
<stop offset="1" stop-color="#0F6B43" stop-opacity="0.4"/>
</linearGradient>
<linearGradient id="paint2_linear_2_1318" x1="1228.11" y1="351.246" x2="942.119" y2="-123.808" gradientUnits="userSpaceOnUse">
<stop stop-color="#0F6B43"/>
<stop offset="1" stop-color="#0F6B43" stop-opacity="0.4"/>
</linearGradient>
<linearGradient id="paint3_linear_2_1318" x1="1175.21" y1="374.43" x2="1409.72" y2="211.773" gradientUnits="userSpaceOnUse">
<stop stop-color="#963024"/>
<stop offset="0.859969" stop-color="#BF3B2C"/>
</linearGradient>
<linearGradient id="paint4_linear_2_1318" x1="90.6668" y1="950.232" x2="476.687" y2="639.736" gradientUnits="userSpaceOnUse">
<stop stop-color="#41894D"/>
<stop offset="1" stop-color="#A9AD38"/>
</linearGradient>
<linearGradient id="paint5_linear_2_1318" x1="1031.03" y1="762.689" x2="862.339" y2="969.8" gradientUnits="userSpaceOnUse">
<stop stop-color="#EDA800"/>
<stop offset="1" stop-color="#EDA800" stop-opacity="0"/>
</linearGradient>
<linearGradient id="paint6_linear_2_1318" x1="493.631" y1="604.326" x2="638.532" y2="782.406" gradientUnits="userSpaceOnUse">
<stop stop-color="#EDA800"/>
<stop offset="1" stop-color="#EDA800" stop-opacity="0"/>
</linearGradient>
<linearGradient id="paint7_linear_2_1318" x1="-62.5599" y1="639.839" x2="82.3411" y2="817.918" gradientUnits="userSpaceOnUse">
<stop stop-color="#EDA800"/>
<stop offset="1" stop-color="#EDA800" stop-opacity="0"/>
</linearGradient>
<linearGradient id="paint8_linear_2_1318" x1="-179.6" y1="903.351" x2="300.147" y2="779.921" gradientUnits="userSpaceOnUse">
<stop stop-color="#41894D"/>
<stop offset="1" stop-color="#A9AD38"/>
</linearGradient>
<linearGradient id="paint9_linear_2_1318" x1="111.051" y1="464.079" x2="111.051" y2="601.653" gradientUnits="userSpaceOnUse">
<stop stop-color="#6547DF"/>
<stop offset="1" stop-color="#924ED3"/>
</linearGradient>
<linearGradient id="paint10_linear_2_1318" x1="-134.936" y1="903.515" x2="79.3996" y2="985.787" gradientUnits="userSpaceOnUse">
<stop stop-color="#EDA800"/>
<stop offset="1" stop-color="#EDA800" stop-opacity="0"/>
</linearGradient>
<linearGradient id="paint11_linear_2_1318" x1="132.174" y1="742.476" x2="132.174" y2="872.467" gradientUnits="userSpaceOnUse">
<stop stop-color="#F5D3DA"/>
<stop offset="1" stop-color="#F9D29C" stop-opacity="0.1"/>
</linearGradient>
<linearGradient id="paint12_linear_2_1318" x1="360.2" y1="610.319" x2="360.2" y2="703.479" gradientUnits="userSpaceOnUse">
<stop stop-color="#F5D3DA"/>
<stop offset="1" stop-color="#F9D29C" stop-opacity="0.1"/>
</linearGradient>
<linearGradient id="paint13_linear_2_1318" x1="28.1822" y1="890.882" x2="28.1822" y2="1025.21" gradientUnits="userSpaceOnUse">
<stop stop-color="#F5EBDD"/>
<stop offset="1" stop-color="#FDE5AC"/>
</linearGradient>
<linearGradient id="paint14_linear_2_1318" x1="1390.13" y1="892.444" x2="1006.53" y2="583.537" gradientUnits="userSpaceOnUse">
<stop stop-color="#41894D"/>
<stop offset="1" stop-color="#A9AD38"/>
</linearGradient>
<linearGradient id="paint15_linear_2_1318" x1="1245.53" y1="544.752" x2="1274.16" y2="671.552" gradientUnits="userSpaceOnUse">
<stop stop-color="#F5D3DA"/>
<stop offset="1" stop-color="#F9D29C" stop-opacity="0.1"/>
</linearGradient>
<linearGradient id="paint16_linear_2_1318" x1="1317.85" y1="441.211" x2="1307.1" y2="512.071" gradientUnits="userSpaceOnUse">
<stop stop-color="#F5D3DA"/>
<stop offset="1" stop-color="#F9D29C" stop-opacity="0.1"/>
</linearGradient>
<linearGradient id="paint17_linear_2_1318" x1="882.144" y1="1141.51" x2="696.627" y2="992.038" gradientUnits="userSpaceOnUse">
<stop stop-color="#41894D"/>
<stop offset="1" stop-color="#A9AD38"/>
</linearGradient>
<linearGradient id="paint18_linear_2_1318" x1="487.46" y1="1059.99" x2="632.717" y2="942.691" gradientUnits="userSpaceOnUse">
<stop stop-color="#41894D"/>
<stop offset="1" stop-color="#A9AD38"/>
</linearGradient>
<linearGradient id="paint19_linear_2_1318" x1="707.093" y1="499.419" x2="707.093" y2="914.442" gradientUnits="userSpaceOnUse">
<stop stop-color="#F5D3DA"/>
<stop offset="1" stop-color="#F9D29C" stop-opacity="0.1"/>
</linearGradient>
<linearGradient id="paint20_linear_2_1318" x1="1202.43" y1="659.065" x2="1202.43" y2="793.389" gradientUnits="userSpaceOnUse">
<stop stop-color="#F5EBDD"/>
<stop offset="1" stop-color="#FDE5AC"/>
</linearGradient>
<linearGradient id="paint21_linear_2_1318" x1="629.929" y1="982.958" x2="629.929" y2="1045.79" gradientUnits="userSpaceOnUse">
<stop stop-color="#F5EBDD"/>
<stop offset="1" stop-color="#FDE5AC"/>
</linearGradient>
<linearGradient id="paint22_linear_2_1318" x1="989.571" y1="203.015" x2="989.571" y2="265.843" gradientUnits="userSpaceOnUse">
<stop stop-color="#F5EBDD"/>
<stop offset="1" stop-color="#FDE5AC"/>
</linearGradient>
<linearGradient id="paint23_linear_2_1318" x1="1326.46" y1="-25.5518" x2="1326.46" y2="37.277" gradientUnits="userSpaceOnUse">
<stop stop-color="#F5EBDD"/>
<stop offset="1" stop-color="#FDE5AC"/>
</linearGradient>
<linearGradient id="paint24_linear_2_1318" x1="1632.68" y1="845.759" x2="1155.76" y2="723.056" gradientUnits="userSpaceOnUse">
<stop stop-color="#41894D"/>
<stop offset="1" stop-color="#A9AD38"/>
</linearGradient>
<linearGradient id="paint25_linear_2_1318" x1="1571.65" y1="839.441" x2="1412.77" y2="999.706" gradientUnits="userSpaceOnUse">
<stop stop-color="#EDA800"/>
<stop offset="1" stop-color="#EDA800" stop-opacity="0"/>
</linearGradient>
<linearGradient id="paint26_linear_2_1318" x1="1395.79" y1="473.523" x2="1395.79" y2="693.729" gradientUnits="userSpaceOnUse">
<stop stop-color="#924ED3"/>
<stop offset="1" stop-color="#2F49A9"/>
</linearGradient>
<linearGradient id="paint27_linear_2_1318" x1="705.129" y1="958.701" x2="656.513" y2="508.319" gradientUnits="userSpaceOnUse">
<stop stop-color="#418548"/>
<stop offset="1" stop-color="#4A9B52"/>
</linearGradient>
<linearGradient id="paint28_linear_2_1318" x1="694.882" y1="630.405" x2="657.321" y2="898.601" gradientUnits="userSpaceOnUse">
<stop stop-color="white"/>
<stop offset="1" stop-color="#F5FFA4"/>
</linearGradient>
<linearGradient id="paint29_linear_2_1318" x1="530.813" y1="561.572" x2="168.464" y2="1059.33" gradientUnits="userSpaceOnUse">
<stop stop-color="#F5EBDD"/>
<stop offset="1" stop-color="#F0AD93"/>
</linearGradient>
<linearGradient id="paint30_linear_2_1318" x1="436.786" y1="756.274" x2="494.167" y2="858.761" gradientUnits="userSpaceOnUse">
<stop stop-color="#D33734"/>
<stop offset="1" stop-color="#B92B1B"/>
</linearGradient>
<linearGradient id="paint31_linear_2_1318" x1="524.911" y1="899.93" x2="639.746" y2="875.252" gradientUnits="userSpaceOnUse">
<stop stop-color="#D33734"/>
<stop offset="1" stop-color="#BF3B2A"/>
</linearGradient>
<linearGradient id="paint32_linear_2_1318" x1="864.996" y1="598.403" x2="1150.43" y2="1046.33" gradientUnits="userSpaceOnUse">
<stop stop-color="#F5EBDD"/>
<stop offset="1" stop-color="#F0AD93"/>
</linearGradient>
<linearGradient id="paint33_linear_2_1318" x1="806.279" y1="788.678" x2="852.317" y2="871.547" gradientUnits="userSpaceOnUse">
<stop stop-color="#4A9B52"/>
<stop offset="1" stop-color="#418548"/>
</linearGradient>
<linearGradient id="paint34_linear_2_1318" x1="830.255" y1="587.948" x2="800.87" y2="730.97" gradientUnits="userSpaceOnUse">
<stop stop-color="#418548"/>
<stop offset="1" stop-color="#4A9B52"/>
</linearGradient>
<linearGradient id="paint35_linear_2_1318" x1="801.002" y1="719.463" x2="752.657" y2="954.769" gradientUnits="userSpaceOnUse">
<stop stop-color="#ED6D2E"/>
<stop offset="1" stop-color="#CE5A18"/>
</linearGradient>
</defs>
</svg>
