<svg width="50" height="50" viewBox="0 0 50 50" fill="none" xmlns="http://www.w3.org/2000/svg">
<path d="M14.8875 35.1123C15.0326 35.2575 15.2049 35.3727 15.3945 35.4513C15.5842 35.5299 15.7874 35.5703 15.9927 35.5703C16.198 35.5703 16.4012 35.5299 16.5909 35.4513C16.7805 35.3727 16.9528 35.2575 17.0979 35.1123L34.8062 17.404C34.9555 17.2599 35.0747 17.0876 35.1566 16.897C35.2386 16.7064 35.2818 16.5014 35.2837 16.2939C35.2856 16.0864 35.2462 15.8807 35.1677 15.6886C35.0892 15.4965 34.9733 15.322 34.8267 15.1753C34.68 15.0285 34.5056 14.9124 34.3136 14.8337C34.1216 14.7551 33.9159 14.7154 33.7084 14.7171C33.501 14.7188 33.2959 14.7619 33.1053 14.8436C32.9146 14.9254 32.7421 15.0444 32.5979 15.1936L14.8896 32.9019C14.597 33.1949 14.4326 33.592 14.4326 34.0061C14.4326 34.4201 14.597 34.8173 14.8896 35.1102L14.8875 35.1123Z" fill="black"/>
<path d="M33.7021 36.6104C34.1165 36.6104 34.5139 36.4457 34.8069 36.1527C35.1 35.8597 35.2646 35.4623 35.2646 35.0479V16.2979C35.2646 15.8835 35.1 15.486 34.8069 15.193C34.5139 14.9 34.1165 14.7354 33.7021 14.7354H14.9521C14.5377 14.7354 14.1403 14.9 13.8472 15.193C13.5542 15.486 13.3896 15.8835 13.3896 16.2979C13.3896 16.7123 13.5542 17.1097 13.8472 17.4027C14.1403 17.6957 14.5377 17.8604 14.9521 17.8604H32.1396V35.0479C32.1396 35.4623 32.3042 35.8597 32.5972 36.1527C32.8903 36.4457 33.2877 36.6104 33.7021 36.6104Z" fill="black"/>
</svg>
