<svg width="30" height="31" viewBox="0 0 30 31" fill="none" xmlns="http://www.w3.org/2000/svg">
<path d="M26.9391 18.5938C26.6904 18.5938 26.452 18.6925 26.2762 18.8683C26.1003 19.0442 26.0016 19.2826 26.0016 19.5312V22.7328C26.0016 23.4874 25.7018 24.2112 25.1682 24.7448C24.6346 25.2784 23.9109 25.5781 23.1563 25.5781H6.84376C6.08913 25.5781 5.36542 25.2784 4.83182 24.7448C4.29822 24.2112 3.99844 23.4874 3.99844 22.7328V19.5312C3.99844 19.2826 3.89967 19.0442 3.72386 18.8683C3.54804 18.6925 3.30958 18.5938 3.06094 18.5938C2.8123 18.5938 2.57385 18.6925 2.39803 18.8683C2.22222 19.0442 2.12344 19.2826 2.12344 19.5312V22.7328C2.12468 23.9843 2.6224 25.1842 3.50736 26.0692C4.39232 26.9542 5.59223 27.4519 6.84376 27.4531H23.1563C24.4078 27.4519 25.6077 26.9542 26.4927 26.0692C27.3776 25.1842 27.8753 23.9843 27.8766 22.7328V19.5312C27.8766 19.2826 27.7778 19.0442 27.602 18.8683C27.4262 18.6925 27.1877 18.5938 26.9391 18.5938Z" fill="black"/>
<path d="M14.3344 21.3313C14.4215 21.4191 14.5252 21.4889 14.6395 21.5365C14.7537 21.5841 14.8763 21.6086 15 21.6086C15.1238 21.6086 15.2463 21.5841 15.3606 21.5365C15.4748 21.4889 15.5785 21.4191 15.6656 21.3313L21 15.9969C21.1489 15.8178 21.2257 15.5897 21.2156 15.3571C21.2055 15.1244 21.1092 14.9038 20.9454 14.7383C20.7817 14.5728 20.5621 14.4741 20.3296 14.4615C20.0971 14.449 19.8682 14.5234 19.6875 14.6703L15.9375 18.4203V4.48438C15.9375 4.23573 15.8387 3.99728 15.6629 3.82146C15.4871 3.64565 15.2487 3.54688 15 3.54688C14.7514 3.54688 14.5129 3.64565 14.3371 3.82146C14.1613 3.99728 14.0625 4.23573 14.0625 4.48438V18.4063L10.3125 14.6563C10.1366 14.4803 9.89801 14.3815 9.64923 14.3815C9.40045 14.3815 9.16187 14.4803 8.98595 14.6563C8.81004 14.8322 8.71121 15.0708 8.71121 15.3195C8.71121 15.5683 8.81004 15.8069 8.98595 15.9828L14.3344 21.3313Z" fill="black"/>
</svg>
