<svg width="28" height="29" viewBox="0 0 28 29" fill="none" xmlns="http://www.w3.org/2000/svg">
<path d="M26.1917 3.18359V11.0586C26.1917 11.5422 25.8003 11.9336 25.3167 11.9336C24.833 11.9336 24.4417 11.5422 24.4417 11.0586V5.29584L11.9353 17.8022C11.7644 17.9731 11.5404 18.0586 11.3167 18.0586C11.0929 18.0586 10.8689 17.9731 10.698 17.8022C10.6167 17.721 10.5522 17.6246 10.5082 17.5184C10.4642 17.4123 10.4416 17.2985 10.4416 17.1836C10.4416 17.0687 10.4642 16.9549 10.5082 16.8488C10.5522 16.7426 10.6167 16.6462 10.698 16.565L23.2044 4.05859H17.4417C16.958 4.05859 16.5667 3.66725 16.5667 3.18359C16.5667 2.69994 16.958 2.30859 17.4417 2.30859H25.3167C25.8003 2.30859 26.1917 2.69994 26.1917 3.18359ZM23.625 25.0003V14.5003C23.625 14.0166 23.2337 13.6253 22.75 13.6253C22.2663 13.6253 21.875 14.0166 21.875 14.5003V25.0003C21.875 25.483 21.4828 25.8753 21 25.8753H3.5C3.01722 25.8753 2.625 25.483 2.625 25.0003V7.50026C2.625 7.01748 3.01722 6.62526 3.5 6.62526H14C14.4837 6.62526 14.875 6.23392 14.875 5.75026C14.875 5.2666 14.4837 4.87526 14 4.87526H3.5C2.05253 4.87526 0.875 6.05279 0.875 7.50026V25.0003C0.875 26.4477 2.05253 27.6253 3.5 27.6253H21C22.4475 27.6253 23.625 26.4477 23.625 25.0003Z" fill="black"/>
</svg>
