<svg width="706" height="627" viewBox="0 0 706 627" fill="none" xmlns="http://www.w3.org/2000/svg">
<g clip-path="url(#clip0_708_756)">
<path d="M457.607 558.609V571.521H573.516V558.609H457.607Z" fill="#6C5047"/>
<path d="M592.605 618.188L562.459 438.738H468.665L438.519 618.188C438.383 619.037 438.433 619.907 438.665 620.736C438.897 621.565 439.306 622.334 439.864 622.989C440.422 623.645 441.116 624.171 441.897 624.533C442.678 624.895 443.528 625.083 444.389 625.084C445.748 625.087 447.067 624.623 448.125 623.771C449.183 622.919 449.918 621.73 450.205 620.402L489.677 438.7H541.44L580.911 620.402C581.201 621.73 581.938 622.919 582.997 623.77C584.056 624.622 585.375 625.086 586.735 625.084C587.596 625.083 588.446 624.895 589.227 624.533C590.008 624.171 590.702 623.645 591.26 622.989C591.818 622.334 592.227 621.565 592.459 620.736C592.691 619.907 592.741 619.037 592.605 618.188Z" fill="#6C5047"/>
<path d="M553.63 558.609V571.521H669.539V558.609H553.63Z" fill="#8C6356"/>
<path d="M688.626 618.188L658.48 438.738H564.687L534.533 618.188C534.398 619.038 534.449 619.908 534.682 620.736C534.915 621.565 535.325 622.334 535.884 622.989C536.442 623.645 537.136 624.171 537.918 624.533C538.699 624.895 539.55 625.083 540.411 625.084C541.769 625.087 543.088 624.623 544.147 623.771C545.205 622.919 545.939 621.73 546.227 620.402L585.698 438.7H637.43L676.902 620.402C677.192 621.73 677.929 622.919 678.988 623.77C680.047 624.622 681.366 625.086 682.726 625.084C683.589 625.087 684.443 624.903 685.228 624.543C686.013 624.183 686.71 623.657 687.271 623.001C687.833 622.345 688.245 621.574 688.479 620.743C688.713 619.912 688.763 619.04 688.626 618.188Z" fill="#8C6356"/>
<path d="M593.891 409.811L605.385 364.845H529.177C514.239 364.844 499.726 369.814 487.924 378.97C476.121 388.127 467.701 400.95 463.989 415.42L456.204 445.918H547.392C558.052 445.918 568.409 442.369 576.828 435.831C585.247 429.293 591.251 420.138 593.891 409.811Z" fill="#FFB7D5"/>
<path d="M638.067 445.919H456.204L459.269 433.712H539.101L569.546 314.646C573.693 298.427 583.122 284.049 596.344 273.782C609.567 263.515 625.832 257.941 642.573 257.94C683.539 257.94 713.516 296.554 703.37 336.24L684.558 409.804C681.92 420.132 675.918 429.287 667.5 435.827C659.082 442.366 648.727 445.917 638.067 445.919Z" fill="#FF7235"/>
<path d="M461.155 432.523H557.906" stroke="#A15842" stroke-width="4.7296" stroke-linecap="round" stroke-linejoin="round"/>
<path d="M539.453 432.08L556.404 365.788" stroke="#A15842" stroke-width="4.7296" stroke-linecap="round" stroke-linejoin="round"/>
<path d="M631.195 224.408C631.214 223.327 631.178 222.245 631.088 221.167L629.877 214.362C625.019 197.205 608.107 184.171 601.892 163.657L580.689 163.864V163.465L553.256 175.81L542.605 153.55H542.413L532.574 175.81L521.256 163.78V163.864C521.256 163.864 486.857 165.09 427.539 185.81C427.539 185.81 424.228 170.676 419.937 152.944L366.818 169.803C369.952 202.102 378.634 240.194 401.807 248.73C428.964 258.731 494.719 239.435 494.719 239.435L504.007 313.045H626.214V299.443C626.214 299.443 636.222 294.463 636.222 283.007C636.199 262.286 630.475 259.428 631.195 224.408Z" fill="url(#paint0_linear_708_756)"/>
<path d="M542.403 153.549H522.579L521.246 163.779L532.564 175.81L542.403 153.549Z" fill="#F5EBDD"/>
<path d="M542.64 153.549L553.291 175.81L580.725 163.465C580.832 162.33 581.177 158.867 581.636 153.97V153.549H542.64Z" fill="#F5EBDD"/>
<path d="M490.404 216.546L493.109 238.561" stroke="#4E7A43" stroke-width="4.7296" stroke-linecap="round" stroke-linejoin="round"/>
<path d="M542.219 199.396C545.575 199.396 548.296 196.676 548.296 193.32C548.296 189.964 545.575 187.243 542.219 187.243C538.863 187.243 536.142 189.964 536.142 193.32C536.142 196.676 538.863 199.396 542.219 199.396Z" fill="#30242A"/>
<path d="M383.561 189.388C386.917 189.388 389.637 186.667 389.637 183.311C389.637 179.955 386.917 177.234 383.561 177.234C380.205 177.234 377.484 179.955 377.484 183.311C377.484 186.667 380.205 189.388 383.561 189.388Z" fill="#30242A"/>
<path d="M429.048 186.177L431.799 199.388" stroke="#4E7A43" stroke-width="4.7296" stroke-linecap="round" stroke-linejoin="round"/>
<path d="M542.412 153.548H542.65L542.58 153.403H581.661V153.548H581.715C582.037 150.092 582.428 145.97 582.841 141.518C576.129 139.265 559.355 132.537 553.47 120.107C563.378 116.805 574.926 102.766 566.68 91.203C555.738 75.8772 536.956 96.1609 536.956 96.1609C536.956 96.1609 525.393 88.7279 519.615 73.042C517.14 73.8619 509.707 74.6895 503.929 73.042C503.929 73.042 501.446 79.6474 499.799 91.203C499.569 92.7969 499.313 94.3295 499.032 95.8008C499.032 95.8008 491.546 95.3486 490.726 98.6513C489.699 102.736 496.251 107.081 496.251 107.081C493.684 116.276 491.553 123.395 494.848 131.64C497.76 138.912 503.937 147.326 523.753 144.851L522.642 153.38H542.504L542.412 153.548Z" fill="#E6AB6B"/>
<path d="M519.583 73.0429C525.361 88.7288 536.924 96.1618 536.924 96.1618C536.924 96.1618 555.706 75.8858 566.649 91.2039C574.902 102.767 563.346 116.806 553.438 120.108C559.323 132.538 576.097 139.266 582.81 141.518C584.258 125.771 586.005 105.832 586.465 96.1618C587.231 80.3992 585.699 57.2803 560.043 45.7936C536.097 35.0656 513.806 51.5714 513.806 51.5714C513.806 51.5714 493.445 45.7093 492.349 59.0045C491.522 68.9126 503.913 73.0429 503.913 73.0429C509.675 74.6904 517.124 73.8628 519.583 73.0429Z" fill="#8C6356"/>
<path d="M524.258 146.361C528.197 145.679 533.714 144.231 538.158 141.181" stroke="#654A41" stroke-width="4.7296" stroke-miterlimit="10" stroke-linecap="round"/>
<path d="M502.94 114.713C504.312 115.564 509.423 116.246 511.5 112.292" stroke="#654A41" stroke-width="4.7296" stroke-miterlimit="10" stroke-linecap="round"/>
<path d="M512.979 95.357C514.358 95.357 515.477 94.2386 515.477 92.8589C515.477 91.4793 514.358 90.3608 512.979 90.3608C511.599 90.3608 510.481 91.4793 510.481 92.8589C510.481 94.2386 511.599 95.357 512.979 95.357Z" fill="#30242A"/>
<path d="M555.913 101.112L546.833 106.89" stroke="#654A41" stroke-width="4.7296" stroke-miterlimit="10" stroke-linecap="round"/>
<path d="M503.983 313.021C503.983 313.021 442.519 335.895 419.692 348.041C380.013 369.121 375.178 380.386 350.726 454.624C342.557 479.237 337.047 499.299 331.844 514.946L397.921 545.146L398.006 544.977L408.734 549.996C408.734 549.996 426.044 527.452 428.818 501.935C432.404 468.984 430.259 446.708 445.316 433.796L619.616 312.999L503.983 313.021Z" fill="#343434"/>
<path d="M321.184 540.578L335.598 547.298C345.56 551.957 344.794 558.693 343.614 561.29C342.526 563.338 341.329 565.326 340.027 567.245L375.966 584.233C384.021 571.634 391.351 558.586 397.92 545.152L331.843 514.945C328.364 525.466 325.039 533.98 321.184 540.578Z" fill="#E6AB6B"/>
<path d="M335.598 547.297L321.184 540.577C317.353 547.098 313.061 551.742 307.567 554.554C303.451 556.589 298.939 557.693 294.349 557.788C293.145 557.834 291.988 557.911 290.847 557.987C293.912 563.474 295.306 571.88 295.306 571.88C303.828 574.179 314.042 571.313 321.36 568.378C324.119 567.267 326.456 566.141 328.119 565.313C329.275 564.717 330.553 564.394 331.854 564.37C333.155 564.346 334.443 564.622 335.621 565.175L340.065 567.275C341.367 565.356 342.564 563.368 343.652 561.321C344.816 558.692 345.598 551.957 335.598 547.297Z" fill="#FF7235"/>
<path d="M340.028 567.245L335.584 565.145C334.406 564.592 333.117 564.317 331.817 564.341C330.516 564.365 329.238 564.687 328.082 565.283C326.419 566.141 324.082 567.268 321.323 568.348C314.043 571.283 303.829 574.157 295.269 571.85C295.269 571.85 293.875 563.421 290.809 557.958C290.043 558.011 289.361 558.072 288.656 558.141C274.794 559.467 266.549 563.222 261.644 568.808L355.507 612.563C359.408 607.835 364.925 600.716 371.346 591.237C372.879 589.023 374.411 586.701 375.944 584.234L340.028 567.245Z" fill="#30242A"/>
<path d="M257.092 576.64L349.369 619.552C349.369 619.552 351.667 617.192 355.499 612.525L261.644 568.809C259.64 571.105 258.095 573.763 257.092 576.64Z" fill="#FF7235"/>
<path d="M575.822 313.021C575.822 313.021 500.58 333.635 464.082 355.934C426.189 379.053 425.767 397.903 431.3 459.781" stroke="black" stroke-width="4.7296" stroke-linecap="round" stroke-linejoin="round"/>
<path d="M557.714 433.872L554.864 445.098" stroke="#A15842" stroke-width="4.7296" stroke-linecap="round" stroke-linejoin="round"/>
<path d="M696.037 363.313H648.152" stroke="#A15842" stroke-width="4.7296" stroke-linecap="round" stroke-linejoin="round"/>
<path d="M132.731 558.609V571.521H248.64V558.609H132.731Z" fill="#6C5047"/>
<path d="M113.644 618.188L143.789 438.738H237.591L267.737 618.188C267.873 619.038 267.823 619.908 267.591 620.738C267.358 621.567 266.948 622.337 266.389 622.992C265.831 623.648 265.136 624.175 264.354 624.536C263.572 624.897 262.721 625.084 261.859 625.084C260.501 625.084 259.184 624.62 258.126 623.768C257.068 622.917 256.333 621.729 256.043 620.402L216.572 438.738H164.809L125.337 620.441C125.047 621.767 124.312 622.955 123.254 623.807C122.196 624.658 120.879 625.123 119.521 625.123C118.656 625.123 117.801 624.935 117.016 624.572C116.23 624.209 115.534 623.678 114.974 623.018C114.415 622.358 114.006 621.584 113.776 620.75C113.546 619.916 113.501 619.041 113.644 618.188Z" fill="#6C5047"/>
<path d="M36.7087 558.609V571.521H152.618V558.609H36.7087Z" fill="#8C6356"/>
<path d="M17.6198 618.188L47.7656 438.738H141.567L171.713 618.188C171.849 619.038 171.799 619.908 171.567 620.738C171.334 621.567 170.924 622.337 170.365 622.992C169.807 623.648 169.112 624.175 168.33 624.536C167.548 624.897 166.697 625.084 165.835 625.084C164.477 625.084 163.16 624.62 162.102 623.768C161.044 622.917 160.309 621.729 160.019 620.402L120.548 438.738H68.7849L29.3134 620.441C29.0233 621.767 28.2883 622.955 27.2304 623.807C26.1726 624.658 24.8553 625.123 23.4973 625.123C22.632 625.123 21.7769 624.935 20.9917 624.572C20.2064 624.209 19.5098 623.678 18.9504 623.018C18.3909 622.358 17.982 621.584 17.7523 620.75C17.5225 619.916 17.4773 619.041 17.6198 618.188Z" fill="#8C6356"/>
<path d="M112.364 409.811L100.87 364.845H177.077C192.016 364.843 206.53 369.812 218.333 378.969C230.135 388.126 238.555 400.95 242.266 415.42L250.051 445.88H158.863C148.208 445.883 137.854 442.341 129.435 435.81C121.016 429.279 115.01 420.132 112.364 409.811Z" fill="#3EC1F3"/>
<path d="M68.1792 445.919H250.042L246.977 433.712H167.145L136.693 314.646C132.546 298.427 123.117 284.049 109.894 273.782C96.6714 263.515 80.4068 257.941 63.6657 257.94C22.7 257.94 -7.27725 296.554 2.86841 336.24L21.6885 409.804C24.3242 420.133 30.3249 429.29 38.7435 435.83C47.1621 442.37 57.5189 445.919 68.1792 445.919Z" fill="url(#paint1_linear_708_756)"/>
<path d="M110.99 166.683C85.8868 169.472 76.63 178.377 58.354 200.308C53.8406 205.725 46.8597 214.952 42.4918 220.714L42.6298 220.829C42.6298 220.829 10.8365 260.255 12.3001 290.232L56.8904 302.684L87.3274 263.021L95.9098 289.465C95.9098 289.465 76.6147 300.899 65.8943 321.65H165.941C165.941 321.65 174.523 303.787 190.96 294.492C192.999 293.328 199.336 290.492 206.11 287.55L203.811 282.952L210.945 260.883L226.7 278.722C226.7 278.722 215.972 283.22 206.117 287.496L223.121 321.596H283.16C316.747 299.443 291.015 259.427 280.302 245.128C272.922 235.297 238.846 185.81 215.267 172.951C199.543 164.377 178.684 165.572 178.684 165.572L177.29 157.227H140.171C135.083 162.913 129.864 164.583 110.99 166.683Z" fill="url(#paint2_linear_708_756)"/>
<path d="M110.164 283.527C110.363 269.489 112.678 233.925 130.21 215.818C149.551 195.894 193.1 200.101 206.678 217.963C220.257 235.826 210.969 260.876 210.969 260.876L204.54 283.029L223.115 321.619H56.5853L89.4591 291.604L110.164 283.527Z" fill="#343434"/>
<path d="M245.092 432.523H148.34" stroke="#4756DF" stroke-width="4.7296" stroke-miterlimit="10" stroke-linecap="round"/>
<path d="M166.8 432.08L149.842 365.788" stroke="#4756DF" stroke-width="4.7296" stroke-miterlimit="10" stroke-linecap="round"/>
<path d="M148.908 435.42L151.383 445.098" stroke="#4F4F4F" stroke-width="4.7296" stroke-linecap="round" stroke-linejoin="round"/>
<path d="M10.2097 363.313H58.095" stroke="#4F4F4F" stroke-width="4.7296" stroke-linecap="round" stroke-linejoin="round"/>
<path d="M542.219 199.396C545.575 199.396 548.296 196.676 548.296 193.32C548.296 189.964 545.575 187.243 542.219 187.243C538.863 187.243 536.142 189.964 536.142 193.32C536.142 196.676 538.863 199.396 542.219 199.396Z" fill="#30242A"/>
<path d="M629.875 214.362L631.086 221.166C630.909 218.864 630.503 216.584 629.875 214.362Z" fill="#A15842"/>
<path d="M581.638 153.97L581.684 153.549H581.63L581.638 153.97Z" fill="#3EC1F3"/>
<path d="M522.604 153.403H522.481L522.465 153.549H522.581L522.604 153.403Z" fill="#F5EBDD"/>
<path d="M542.404 153.549L542.466 153.403H522.603L522.58 153.549H542.404Z" fill="#F5EBDD"/>
<path d="M522.464 153.549L521.131 163.656L521.246 163.779L522.579 153.549H522.464Z" fill="#F5EBDD"/>
<path d="M581.621 153.403H542.571L542.64 153.549H581.629L581.621 153.403Z" fill="#F5EBDD"/>
<path d="M117.106 69.8855C136.405 69.8855 152.049 54.2411 152.049 34.9428C152.049 15.6444 136.405 0 117.106 0C97.8078 0 82.1635 15.6444 82.1635 34.9428C82.1635 54.2411 97.8078 69.8855 117.106 69.8855Z" fill="#30242A"/>
<path d="M141.237 58.2386C139.099 59.2195 157.046 16.6368 166.195 23.2882C174.816 29.5641 152.049 53.2501 141.237 58.2386Z" fill="#5A9B4A"/>
<path d="M140.241 60.8428C138.287 63.1799 92.5161 47.1722 98.861 37.9307C104.93 29.0418 142.195 58.5056 140.241 60.8428Z" fill="#5A9B4A"/>
<path d="M203.376 82.7053C196.732 83.8241 187 81.5405 187 81.5405C173.682 96.5138 159.536 99.8395 159.536 99.8395C150.387 89.8778 133.743 89.8777 131.253 104C128.486 119.656 147.889 123.97 147.889 123.97C147.889 123.97 150.64 143.541 143.153 153.526C142.103 154.92 141.138 156.146 140.172 157.227H177.284L176.18 150.598C176.18 150.598 187.828 154.759 197.813 148.936C207.797 143.112 210.295 132.292 206.962 115.648C204.993 105.794 205.062 93.6019 203.376 82.7053Z" fill="url(#paint3_linear_708_756)"/>
<path d="M190.961 294.438C174.524 303.733 165.942 321.595 165.942 321.595H223.115L206.111 287.496C199.337 290.423 192.984 293.273 190.961 294.438Z" fill="#FF7235"/>
<path d="M226.656 277.128L239.56 272.285" stroke="#130D10" stroke-width="4.7296" stroke-miterlimit="10" stroke-linecap="round"/>
<path d="M110.203 283.006H204.487" stroke="#F5EBDD" stroke-width="4.7296" stroke-miterlimit="10" stroke-linecap="round"/>
<path d="M150.938 252.99H187.383" stroke="#F5EBDD" stroke-width="4.7296" stroke-miterlimit="10" stroke-linecap="round"/>
<path d="M218.119 282.293L236.694 325.205H200.962C193.82 325.205 184.525 325.205 185.245 321.627C179.521 325.918 170.234 325.205 170.946 321.627C161.659 325.918 158.801 323.059 158.088 321.627C157.375 320.194 166.663 308.048 187.383 296.554C199.422 289.948 218.119 282.293 218.119 282.293Z" fill="url(#paint4_linear_708_756)"/>
<path d="M166.663 324.454C166.663 324.454 177.391 313.726 200.962 300.875" stroke="#654A41" stroke-width="4.7296" stroke-miterlimit="10" stroke-linecap="round"/>
<path d="M207.397 308.738C195.227 316.357 183.532 324.709 172.378 333.75" stroke="#654A41" stroke-width="4.7296" stroke-miterlimit="10" stroke-linecap="round"/>
<path d="M214.54 317.312C195.284 327.32 173.827 340.899 173.827 340.899" stroke="#654A41" stroke-width="4.7296" stroke-miterlimit="10" stroke-linecap="round"/>
<path d="M110.35 165.437L129.113 158.489C129.157 158.473 129.204 158.465 129.252 158.467C129.299 158.469 129.345 158.48 129.388 158.5C129.431 158.52 129.47 158.548 129.502 158.582C129.534 158.617 129.559 158.658 129.576 158.702L151.771 218.64C152.726 221.219 152.618 224.071 151.469 226.57C150.321 229.069 148.228 231.009 145.649 231.964C143.07 232.918 140.218 232.81 137.72 231.662C135.221 230.514 133.281 228.42 132.326 225.841L110.13 165.903C110.114 165.858 110.106 165.81 110.108 165.762C110.11 165.714 110.122 165.667 110.142 165.624C110.163 165.58 110.192 165.542 110.227 165.51C110.263 165.478 110.305 165.453 110.35 165.437Z" fill="#F5EBDD"/>
<path d="M192.808 234.484C194.163 234.64 195.536 234.527 196.848 234.152C198.159 233.776 199.384 233.146 200.451 232.297C201.519 231.448 202.408 230.396 203.069 229.203C203.73 228.01 204.149 226.698 204.303 225.342L210.494 170.706C203.975 168.17 197.126 166.578 190.157 165.978L183.674 222.99C183.518 224.345 183.631 225.717 184.006 227.028C184.381 228.339 185.01 229.563 185.859 230.63C186.707 231.698 187.757 232.588 188.95 233.249C190.142 233.91 191.453 234.33 192.808 234.484Z" fill="#F5EBDD"/>
<path d="M141.85 227.526C145.206 227.526 147.927 224.806 147.927 221.45C147.927 218.094 145.206 215.373 141.85 215.373C138.494 215.373 135.774 218.094 135.774 221.45C135.774 224.806 138.494 227.526 141.85 227.526Z" fill="#30242A"/>
<path d="M194.172 229.411C197.528 229.411 200.249 226.691 200.249 223.334C200.249 219.978 197.528 217.258 194.172 217.258C190.816 217.258 188.096 219.978 188.096 223.334C188.096 226.691 190.816 229.411 194.172 229.411Z" fill="#30242A"/>
<path d="M77.1683 168.07L113.912 157.227H140.173C141.138 156.146 142.104 154.928 143.153 153.526C150.64 143.564 147.889 123.97 147.889 123.97C147.889 123.97 128.487 119.656 131.253 104C133.743 89.8623 150.41 89.8623 159.537 99.8394C159.537 99.8394 173.682 96.5137 187 81.5404C187 81.5404 196.732 83.8393 203.376 82.7051C202.211 75.2032 200.219 68.3219 196.15 63.2337C186.188 50.7509 158.709 42.4367 137.077 58.2452C115.444 74.0538 117.107 99.8394 117.919 109.824C117.919 109.824 94.6243 102.337 77.9882 119.786C73.1732 124.782 69.6662 130.89 67.7787 137.567C65.8912 144.244 65.6815 151.284 67.1682 158.062C67.1682 158.062 36.5167 157.196 30.5626 185.518C27.4974 200.024 32.3327 210.147 38.4554 216.859L42.2868 209.059L77.1683 168.07Z" fill="#30242A"/>
<path d="M110.992 166.684C129.873 164.584 135.092 162.913 140.18 157.228H113.911L77.1679 168.071L42.2711 209.082L38.4397 216.883C39.6871 218.252 41.0288 219.533 42.455 220.715C46.7922 214.952 53.8038 205.726 58.3172 200.308C76.6238 178.377 85.8806 169.473 110.992 166.684Z" fill="#30242A"/>
<path d="M175.583 152.138C172.137 150.766 168.775 149.193 165.514 147.426" stroke="#654A41" stroke-width="4.7296" stroke-linecap="round" stroke-linejoin="round"/>
<path d="M65.8575 159.005C67.0639 163.586 68.6955 168.045 70.7311 172.323" stroke="black" stroke-width="4.7296" stroke-linecap="round" stroke-linejoin="round"/>
<path d="M116.371 110.545L118.77 123.143" stroke="black" stroke-width="4.7296" stroke-linecap="round" stroke-linejoin="round"/>
<path d="M88.5012 263.734L105.199 240.125" stroke="#130D10" stroke-width="4.7296" stroke-miterlimit="10" stroke-linecap="round"/>
<path d="M147.888 133.542C152.712 133.542 156.623 129.631 156.623 124.806C156.623 119.981 152.712 116.07 147.888 116.07C143.063 116.07 139.152 119.981 139.152 124.806C139.152 129.631 143.063 133.542 147.888 133.542Z" fill="#F5EBDD"/>
<path d="M149.552 109.824L142.901 105.67" stroke="#654A41" stroke-width="4.7296" stroke-linecap="round" stroke-linejoin="round"/>
<path d="M192.119 129.358C190.74 130.216 185.583 130.89 183.498 126.913" stroke="#654A41" stroke-width="4.7296" stroke-linecap="round" stroke-linejoin="round"/>
<path d="M178.563 110.644C179.943 110.644 181.061 109.526 181.061 108.146C181.061 106.766 179.943 105.648 178.563 105.648C177.183 105.648 176.065 106.766 176.065 108.146C176.065 109.526 177.183 110.644 178.563 110.644Z" fill="#30242A"/>
<path d="M197.812 107.334C199.191 107.334 200.31 106.216 200.31 104.836C200.31 103.456 199.191 102.338 197.812 102.338C196.432 102.338 195.314 103.456 195.314 104.836C195.314 106.216 196.432 107.334 197.812 107.334Z" fill="#30242A"/>
<path d="M191.153 111.496C191.153 111.496 193.452 117.181 192.862 118.316C192.471 119.04 191.877 119.634 191.153 120.024" stroke="#654A41" stroke-width="4.7296" stroke-linecap="round" stroke-linejoin="round"/>
<path d="M319.981 618.234H306.295C307.252 620.935 307.654 623.802 307.475 626.663H365.246C366.273 615.33 358.74 602.969 337.047 593.107L336.594 592.893C330.64 597.36 325.292 604.755 319.981 618.234Z" fill="#C94B30"/>
<path d="M336.02 591.851C317.974 582.9 321.231 563.245 326.487 518.662C325.241 516.49 323.371 514.742 321.119 513.646C318.868 512.55 316.339 512.156 313.86 512.516C311.382 512.875 309.068 513.971 307.221 515.662C305.373 517.352 304.076 519.559 303.499 521.996C302.841 519.269 301.285 516.843 299.081 515.108C296.878 513.373 294.154 512.429 291.349 512.429C288.544 512.429 285.821 513.373 283.617 515.108C281.414 516.843 279.858 519.269 279.2 521.996C278.542 519.269 276.986 516.843 274.782 515.108C272.578 513.373 269.855 512.429 267.05 512.429C264.245 512.429 261.522 513.373 259.318 515.108C257.115 516.843 255.559 519.269 254.901 521.996C254.243 519.269 252.687 516.843 250.483 515.108C248.279 513.373 245.556 512.429 242.751 512.429C239.946 512.429 237.223 513.373 235.019 515.108C232.816 516.843 231.26 519.269 230.602 521.996C229.944 519.269 228.388 516.843 226.184 515.108C223.98 513.373 221.257 512.429 218.452 512.429C215.647 512.429 212.924 513.373 210.72 515.108C208.517 516.843 206.961 519.269 206.303 521.996C205.842 520.078 204.934 518.297 203.653 516.798C202.371 515.299 200.753 514.125 198.93 513.372C197.107 512.619 195.132 512.309 193.166 512.466C191.2 512.624 189.3 513.245 187.621 514.279C187.697 518.226 187.85 522.348 188.096 526.709C189.26 547.345 193.919 574.946 197.92 595.789C217.414 596.832 225.314 611.222 227.805 617.468H260.625C260.924 616.701 261.215 615.989 261.514 615.268L261.698 614.832C261.981 614.165 262.257 613.514 262.541 612.878C262.61 612.709 262.686 612.556 262.755 612.395C263.008 611.828 263.261 611.284 263.521 610.747L263.751 610.265C263.991 609.754 264.229 609.271 264.464 608.816L264.786 608.165L265.506 606.778L265.92 606.012C266.058 605.751 266.203 605.498 266.341 605.245C266.587 604.809 266.84 604.38 267.108 603.958C267.215 603.789 267.315 603.621 267.414 603.452C267.989 602.51 268.564 601.621 269.146 600.786L269.253 600.625C269.583 600.157 269.912 599.705 270.242 599.261C272.244 596.537 274.623 594.112 277.307 592.058C277.92 592.395 278.556 592.717 279.23 593.023C295.192 600.272 303.483 608.893 306.349 617.437H319.982C325.292 603.958 330.641 596.563 336.587 592.088L336.02 591.851Z" fill="#F5EBDD"/>
<path d="M306.295 618.234H306.349C303.483 609.69 295.192 601.069 279.23 593.82C278.555 593.514 277.919 593.192 277.306 592.854C274.71 594.84 272.402 597.177 270.448 599.797L270.31 599.981L270.249 600.058C269.919 600.502 269.59 600.954 269.26 601.422L269.153 601.583C268.571 602.418 267.996 603.307 267.421 604.249C267.322 604.418 267.222 604.586 267.115 604.755C266.869 605.176 266.617 605.606 266.348 606.042C266.21 606.288 266.065 606.54 265.927 606.809L265.513 607.575L264.793 608.962L264.471 609.613C264.236 610.078 263.998 610.561 263.758 611.062L263.528 611.544C263.283 612.081 263.03 612.625 262.762 613.192C262.693 613.353 262.617 613.506 262.548 613.675C262.264 614.311 261.988 614.962 261.705 615.629L261.521 616.065C261.222 616.786 260.931 617.514 260.632 618.265H227.842C225.321 612.019 217.421 597.628 197.957 596.586C201.291 613.989 204.172 626.686 204.172 626.686H307.475C307.657 623.818 307.255 620.943 306.295 618.234Z" fill="#C94B30"/>
<path d="M83.7576 354.607V341.581H59.3283C57.2914 353.22 57.7722 365.162 60.7383 376.6H61.7345C67.5701 376.6 73.1671 374.284 77.2964 370.16C81.4256 366.037 83.7495 360.443 83.7576 354.607Z" fill="#F5EBDD"/>
<path d="M302.027 357.266L300.863 356.607C292.709 356.293 282.717 357.082 270.632 359.803L270.441 359.849C269.468 360.063 268.479 360.301 267.475 360.546L266.916 360.684C265.95 360.922 264.977 361.174 263.989 361.45L263.399 361.604C262.318 361.895 261.23 362.209 260.119 362.531L259.782 362.623C258.54 362.991 257.276 363.389 255.996 363.772C211.375 377.757 191.582 412.815 185.628 434.547H198.824C194.885 452.876 186.8 472.325 187.62 514.279C189.3 513.242 191.202 512.618 193.17 512.459C195.138 512.299 197.115 512.609 198.94 513.362C200.765 514.115 202.385 515.29 203.668 516.791C204.95 518.292 205.858 520.075 206.318 521.995C206.976 519.269 208.532 516.843 210.735 515.107C212.939 513.372 215.662 512.429 218.467 512.429C221.272 512.429 223.996 513.372 226.199 515.107C228.403 516.843 229.959 519.269 230.617 521.995C231.275 519.269 232.831 516.843 235.034 515.107C237.238 513.372 239.961 512.429 242.766 512.429C245.571 512.429 248.295 513.372 250.498 515.107C252.702 516.843 254.258 519.269 254.916 521.995C255.574 519.269 257.13 516.843 259.333 515.107C261.537 513.372 264.26 512.429 267.065 512.429C269.87 512.429 272.594 513.372 274.797 515.107C277.001 516.843 278.557 519.269 279.215 521.995C279.873 519.269 281.429 516.843 283.632 515.107C285.836 513.372 288.56 512.429 291.364 512.429C294.169 512.429 296.893 513.372 299.096 515.107C301.3 516.843 302.856 519.269 303.514 521.995C304.092 519.559 305.388 517.352 307.236 515.661C309.084 513.971 311.397 512.874 313.875 512.515C316.354 512.156 318.883 512.55 321.135 513.646C323.386 514.742 325.257 516.49 326.503 518.662C327.752 508.049 329.116 496.026 330.334 482.401C337.353 403.604 342.702 380.493 302.027 357.266Z" fill="url(#paint5_linear_708_756)"/>
<path d="M307.514 625.361C307.897 614.395 300.142 602.556 279.23 593.054C255.56 582.326 266.089 555.054 272.51 483.114C279.683 402.777 285.116 380.324 241.782 356.615C203.904 335.926 165.314 322.316 165.314 322.316" stroke="#30242A" stroke-width="4.7296" stroke-miterlimit="10" stroke-linecap="round"/>
<path d="M255.998 363.765C209.384 378.409 191.315 412.907 185.599 434.54C191.583 412.823 211.377 377.781 255.998 363.765Z" fill="#A15842"/>
<path d="M230.264 357.334C246.265 349.799 263.802 346.094 281.483 346.514C262.484 337.176 243 328.858 223.115 321.595H65.8954C65.8954 321.595 61.6042 328.744 59.3896 341.227C59.3896 341.357 59.3513 341.48 59.3283 341.61H83.7576V354.637C83.7576 357.529 83.1879 360.393 82.0812 363.065C80.9744 365.737 79.3522 368.165 77.3071 370.21C75.2621 372.255 72.8343 373.877 70.1623 374.984C67.4904 376.091 64.6266 376.66 61.7344 376.66H60.7383C69.2977 409.488 97.8879 434.569 134.54 434.569H165.789C172.141 411.044 186.302 377.978 230.264 357.334Z" fill="#343434"/>
<path d="M59.458 277.29L13.0056 279.436C8.72205 302.302 20.6685 325.888 40.8755 329.459C67.4581 334.149 99.7265 326.302 121.635 319.497V273.16C94.7916 273.941 59.458 277.29 59.458 277.29Z" fill="url(#paint6_linear_708_756)"/>
<path d="M255.997 363.765C274.901 357.826 289.629 356.178 300.863 356.608L299.591 355.903C293.522 352.585 287.43 349.443 281.483 346.516C263.802 346.096 246.266 349.8 230.265 357.335C186.303 377.979 172.142 411.045 165.789 434.539H185.598C191.314 412.907 209.383 378.408 255.997 363.765Z" fill="#F5EBDD"/>
<path d="M199.881 436.516H216.846" stroke="#654A41" stroke-width="4.7296" stroke-linecap="round" stroke-linejoin="round"/>
<path d="M453.653 312.309L437.699 321.596H469.615L453.653 312.309Z" fill="#30232A"/>
<path d="M61.6045 275.864C61.6045 275.864 95.1986 273.105 109.689 272.431" stroke="#130D10" stroke-width="4.7296" stroke-miterlimit="10" stroke-linecap="round"/>
<path d="M21.7124 409.811L10.218 364.845H77.276C92.2139 364.844 106.727 369.814 118.53 378.97C130.332 388.127 138.753 400.95 142.464 415.42L150.25 445.88H68.2031C57.5493 445.882 47.1978 442.338 38.7803 435.807C30.3628 429.277 24.358 420.131 21.7124 409.811Z" fill="url(#paint7_linear_708_756)"/>
<path d="M626.681 299.443H496.12V313.021H626.681V299.443Z" fill="#F5EBDD"/>
<path d="M364.388 255.174H333.736H303.085L313.695 321.841H333.736H364.388H387.966L395.039 255.174H364.388Z" fill="#8C6356"/>
<path d="M322.658 219.6C322.658 218.704 323.384 217.978 324.28 217.978C337.716 217.978 348.608 228.87 348.608 242.306C348.608 243.202 347.881 243.928 346.986 243.928C333.55 243.928 322.658 233.036 322.658 219.6Z" fill="#AAB75D"/>
<path d="M366.772 208.733C366.772 208.106 366.264 207.598 365.637 207.598C356.232 207.598 348.607 215.222 348.607 224.627C348.607 225.254 349.115 225.762 349.742 225.762C359.148 225.762 366.772 218.138 366.772 208.733Z" fill="#AAB75D"/>
<path d="M348.608 257.551V187.163C348.608 181.967 344.396 177.756 339.201 177.756V177.756C334.006 177.756 329.794 181.967 329.794 187.163V191.379" stroke="#5A9B4A" stroke-width="2.3648"/>
<path d="M460.082 566.732H442.795C442.412 576.188 440.328 582.824 435.385 587.598C433.265 589.58 430.821 591.185 428.159 592.342C426.404 593.108 424.772 593.959 423.239 594.794C428.603 598.258 433.967 606.043 433.967 606.043C438.133 605.199 442.077 603.495 445.546 601.039C452.504 596.365 458.136 589.767 460.872 586.211C461.668 585.183 462.69 584.351 463.86 583.781C465.029 583.211 466.314 582.918 467.615 582.924H472.527C472.904 580.64 473.16 578.338 473.293 576.028C473.255 573.185 471.148 566.732 460.082 566.732Z" fill="#FF7235"/>
<path d="M472.519 582.939H467.607C466.306 582.933 465.021 583.226 463.852 583.796C462.683 584.366 461.66 585.198 460.864 586.226C458.113 589.782 452.481 596.38 445.538 601.054C442.069 603.51 438.125 605.214 433.959 606.058C433.959 606.058 428.595 598.272 423.231 594.809C422.664 595.108 422.12 595.414 421.584 595.721C409.975 602.418 405.047 609.997 403.576 617.491H504.864C506.503 612.088 507.851 606.601 508.902 601.054C509.891 595.958 510.849 590.012 511.653 583.161L472.519 582.939Z" fill="#30242A"/>
<path d="M403.216 625.889H501.738C502.982 623.159 504.024 620.342 504.857 617.46H403.584C403.062 620.238 402.938 623.076 403.216 625.889Z" fill="#FF7235"/>
<path d="M439.706 580.234L460.396 594.027" stroke="#F5EBDD" stroke-width="4.7296" stroke-miterlimit="10" stroke-linecap="round"/>
<path d="M432.044 588.663L448.136 603.988" stroke="#F5EBDD" stroke-width="4.7296" stroke-miterlimit="10" stroke-linecap="round"/>
<path d="M650.137 362.554C644.712 331.267 626.191 313.021 626.191 313.021H577.355C577.355 313.021 502.113 333.635 465.615 355.934C423.469 381.666 427.707 402.095 434.879 482.433C437.438 511.084 440.649 532.64 442.09 548.893H513.891C513.891 548.801 513.891 548.709 513.891 548.617H527.14C527.14 548.617 533.945 517.138 526.42 489.084C518.527 459.674 511.355 454.655 507.056 434.57H589.416C627.593 434.54 656.658 400.164 650.137 362.554Z" fill="#343434"/>
<path d="M442.795 566.731H460.09C471.117 566.731 473.263 573.16 473.263 576.018C473.13 578.329 472.874 580.631 472.497 582.915L511.623 583.114C512.765 573.512 513.608 562.141 513.869 548.838H442.067C442.68 554.781 442.923 560.757 442.795 566.731Z" fill="#E6AB6B"/>
<path d="M506.374 435.75H489.041" stroke="black" stroke-width="4.7296" stroke-linecap="round" stroke-linejoin="round"/>
<path d="M301.008 555.713L309.438 576.403" stroke="#F5EBDD" stroke-width="4.7296" stroke-miterlimit="10" stroke-linecap="round"/>
<path d="M684.542 409.811L696.036 364.845H629.001C614.063 364.843 599.549 369.812 587.746 378.969C575.943 388.126 567.523 400.95 563.813 415.42L556.02 445.88H638.044C648.698 445.883 659.051 442.339 667.47 435.809C675.888 429.278 681.895 420.132 684.542 409.811Z" fill="#FF7235"/>
<path d="M590.458 321.595H113.773C108.644 321.595 104.486 325.753 104.486 330.882V330.89C104.486 336.019 108.644 340.177 113.773 340.177H590.458C595.588 340.177 599.746 336.019 599.746 330.89V330.882C599.746 325.753 595.588 321.595 590.458 321.595Z" fill="#6C5047"/>
<path d="M171.666 278.721C165.038 275.71 148.08 273.005 131.643 273.005C128.516 273.005 125.152 273.058 121.635 273.158V319.488C129.773 316.959 136.478 314.568 140.93 313.02C140.93 313.02 173.651 338.017 179.482 326.584C179.482 326.584 188.019 330.032 190.21 321.595C190.21 321.595 200.218 321.595 196.647 314.453C194.241 309.58 183.789 298.729 183.789 298.729C183.789 298.729 196.203 306.216 202.371 301.587C208.111 297.319 179.521 282.292 171.666 278.721Z" fill="url(#paint8_linear_708_756)"/>
<path d="M185.154 297.879C179.529 293.388 171.843 287.35 166.663 283.718" stroke="#654A41" stroke-width="4.7296" stroke-miterlimit="10" stroke-linecap="round"/>
<path d="M158.088 292.194C172.134 301.972 184.77 314.876 190.77 321.366" stroke="#654A41" stroke-width="4.7296" stroke-miterlimit="10" stroke-linecap="round"/>
<path d="M151.482 302.292C160.923 309.189 171.735 319.611 178.793 326.722" stroke="#654A41" stroke-width="4.7296" stroke-miterlimit="10" stroke-linecap="round"/>
<path d="M445.377 292.301C429.66 300.163 417.147 313.757 406.074 328.033C401.07 334.462 388.449 350.478 396.779 352.332C403.216 353.757 416.082 340.899 416.082 340.899C416.082 340.899 408.335 357.673 413.936 362.355C418.22 365.934 423.898 360.217 423.898 360.217C428.902 370.945 436.764 361.643 436.764 361.643C449.377 370.945 461.776 336.631 461.776 336.631C469.129 334.014 476.09 330.404 482.465 325.903C482.465 325.903 486.542 326.96 493.132 328.263L487.186 280.063C471.638 282.937 456.166 286.906 445.377 292.301Z" fill="#E6AB6B"/>
<path d="M413.676 343.037C415.975 336.984 420.029 326.731 423.638 319.811" stroke="#654A41" stroke-width="4.7296" stroke-miterlimit="10" stroke-linecap="round"/>
<path d="M436.802 324.453C430.825 337.334 426.449 351.45 424.013 360.208" stroke="#654A41" stroke-width="4.7296" stroke-miterlimit="10" stroke-linecap="round"/>
<path d="M450.381 328.738C445.86 339.083 441.262 353.083 438.373 362.393" stroke="#654A41" stroke-width="4.7296" stroke-miterlimit="10" stroke-linecap="round"/>
<path d="M583.309 321.595C608.083 300.959 635.57 254.844 638.336 203.679C639.769 177.234 619.041 163.655 603.324 163.655H597.585L546.849 273.005C546.849 273.005 516.772 274.591 487.247 280.047L493.193 328.246C514.504 332.469 562.06 339.304 583.309 321.595Z" fill="url(#paint9_linear_708_756)"/>
<path d="M568.542 226.408L547.63 271.473" stroke="#4E7A43" stroke-width="4.7296" stroke-linecap="round" stroke-linejoin="round"/>
<path d="M604.434 298.332C609.309 291.537 613.7 284.409 617.576 276.999C619.875 272.615 622.059 268.048 624.074 263.32" stroke="#4E7A43" stroke-width="4.7296" stroke-linecap="round" stroke-linejoin="round"/>
<path d="M500.642 276.401C525.539 272.638 539.325 272.186 548.52 271.42C554.65 270.914 563.079 270.654 563.079 270.654" stroke="#4E7A43" stroke-width="4.7296" stroke-linecap="round" stroke-linejoin="round"/>
<path d="M510.772 320.171C514.128 320.171 516.849 317.45 516.849 314.094C516.849 310.738 514.128 308.018 510.772 308.018C507.416 308.018 504.695 310.738 504.695 314.094C504.695 317.45 507.416 320.171 510.772 320.171Z" fill="#30242A"/>
<path d="M493.631 329.71C487.24 328.438 483.309 327.412 483.309 327.412C476.933 331.913 469.972 335.523 462.619 338.14C462.619 338.14 462.19 339.335 461.401 341.205" stroke="#30242A" stroke-width="4.7296" stroke-miterlimit="10" stroke-linecap="round"/>
<path d="M396.281 339.512C398.83 335.538 401.588 331.701 404.541 328.018C406.002 326.133 407.492 324.265 409.009 322.416" stroke="#30242A" stroke-width="4.7296" stroke-miterlimit="10" stroke-linecap="round"/>
<path d="M401.368 250.516H296.472L302.619 269.027H395.988L401.368 250.516Z" fill="#6C5047"/>
<ellipse cx="328.897" cy="195.266" rx="7.01991" ry="8.93443" fill="#FFBE21"/>
<ellipse cx="329.535" cy="203.562" rx="1.27604" ry="1.91406" fill="#FFBE21"/>
<path d="M366.8 171.216C365.984 162.354 365.624 153.455 365.722 144.556L389.314 104.838C389.314 104.838 386.017 85.9419 392.381 84.3861C398.745 82.8302 408.759 102.339 411.468 117.061C412.638 123.424 416.308 138.232 420.094 152.99L366.8 171.216Z" fill="#E6AB6B"/>
<rect width="9.96586" height="75.3205" rx="2.30808" transform="matrix(-0.879753 -0.475431 -0.475431 0.879753 413.698 98.8755)" fill="#6C5047"/>
<path d="M433.144 86.9987C434.638 84.2341 435.147 81.0437 434.588 77.9514L431.794 62.4937C431.268 59.581 428.175 57.9094 425.45 59.065L410.988 65.1975C408.095 66.4243 405.705 68.5985 404.211 71.363L391.607 94.6867C390.395 96.9296 391.23 99.7304 393.473 100.942L414.284 112.189C416.527 113.401 419.327 112.565 420.539 110.322L433.144 86.9987Z" fill="#D9D9D9"/>
<rect width="12.9556" height="18.9351" rx="2.30808" transform="matrix(-0.879753 -0.475431 -0.475431 0.879753 414.316 100.878)" fill="#D9D9D9"/>
<path d="M407.668 99.5519L424.488 68.4272" stroke="#CECECE" stroke-width="1.84646" stroke-linecap="round"/>
<path d="M367.401 153.341C370.173 155.133 372.739 155.978 374.033 155.521C377.281 154.389 378.389 150.971 375.807 145.402C375.807 145.402 383.504 150.162 386.837 146.43C390.17 142.697 387.04 138.118 387.04 138.118C387.04 138.118 392.612 140.819 395.011 135.86C397.409 130.9 393.077 127.273 393.077 127.273C393.077 127.273 396.61 126.652 397.341 123.22C398.394 118.23 390.974 112.656 388.818 111.154" stroke="#654A41" stroke-width="4.60144" stroke-miterlimit="10" stroke-linecap="round"/>
<path d="M389.314 104.838C389.314 104.838 377.307 98.2424 372.786 102.924C368.265 107.605 370.471 114.032 370.471 114.032C370.471 114.032 361.241 114.153 362.898 123.363C362.898 123.363 356.187 127.753 360.576 134.471C360.576 134.471 354.763 137.007 358.862 144.34C362.962 151.672 371.324 156.485 374.081 155.53C377.329 154.398 378.437 150.98 375.855 145.412C375.855 145.412 383.552 150.172 386.885 146.439C390.218 142.707 387.088 138.127 387.088 138.127C387.088 138.127 392.66 140.829 395.059 135.869C397.457 130.909 393.125 127.283 393.125 127.283C393.125 127.283 396.658 126.661 397.389 123.229C398.443 118.24 390.452 112.251 388.294 110.756L389.314 104.838Z" fill="#E6AB6B"/>
<path d="M394.942 128.567C390.057 126.752 377.738 121.654 370.337 114.184" stroke="#654A41" stroke-width="2.30072" stroke-miterlimit="10" stroke-linecap="round"/>
<path d="M390.643 140.443C380.229 137.143 370.685 131.557 362.707 124.095" stroke="#654A41" stroke-width="2.30072" stroke-miterlimit="10" stroke-linecap="round"/>
<path d="M379.279 148.667C377.58 147.692 366.514 141.256 360.164 135.373" stroke="#654A41" stroke-width="2.30072" stroke-miterlimit="10" stroke-linecap="round"/>
</g>
<defs>
<linearGradient id="paint0_linear_708_756" x1="367.193" y1="190.176" x2="596.935" y2="153.162" gradientUnits="userSpaceOnUse">
<stop stop-color="#AAB75D"/>
<stop offset="1" stop-color="#4C9C53"/>
</linearGradient>
<linearGradient id="paint1_linear_708_756" x1="125.462" y1="257.94" x2="125.462" y2="445.919" gradientUnits="userSpaceOnUse">
<stop stop-color="#FFBE21"/>
<stop offset="1" stop-color="#FFA621"/>
</linearGradient>
<linearGradient id="paint2_linear_708_756" x1="156.048" y1="157.227" x2="156.048" y2="321.65" gradientUnits="userSpaceOnUse">
<stop stop-color="#4756DF"/>
<stop offset="1" stop-color="#6547DF"/>
</linearGradient>
<linearGradient id="paint3_linear_708_756" x1="169.669" y1="81.5405" x2="169.669" y2="157.227" gradientUnits="userSpaceOnUse">
<stop stop-color="#ECD6AF"/>
<stop offset="1" stop-color="#DAAF84"/>
</linearGradient>
<linearGradient id="paint4_linear_708_756" x1="197.372" y1="282.293" x2="197.372" y2="325.205" gradientUnits="userSpaceOnUse">
<stop stop-color="#ECD6AF"/>
<stop offset="1" stop-color="#DAAF84"/>
</linearGradient>
<linearGradient id="paint5_linear_708_756" x1="260.412" y1="356.542" x2="260.412" y2="521.995" gradientUnits="userSpaceOnUse">
<stop stop-color="#ECD6AF"/>
<stop offset="1" stop-color="#DAAF84"/>
</linearGradient>
<linearGradient id="paint6_linear_708_756" x1="122.133" y1="300.565" x2="9.17628" y2="290.354" gradientUnits="userSpaceOnUse">
<stop stop-color="#4756DF"/>
<stop offset="1" stop-color="#6547DF"/>
</linearGradient>
<linearGradient id="paint7_linear_708_756" x1="80.2338" y1="364.845" x2="80.2338" y2="445.88" gradientUnits="userSpaceOnUse">
<stop stop-color="#FFBE21"/>
<stop offset="1" stop-color="#FFA621"/>
</linearGradient>
<linearGradient id="paint8_linear_708_756" x1="162.381" y1="273.005" x2="162.381" y2="329.578" gradientUnits="userSpaceOnUse">
<stop stop-color="#ECD6AF"/>
<stop offset="1" stop-color="#DAAF84"/>
</linearGradient>
<linearGradient id="paint9_linear_708_756" x1="562.827" y1="163.655" x2="562.827" y2="333.145" gradientUnits="userSpaceOnUse">
<stop stop-color="#4A9B52"/>
<stop offset="1" stop-color="#AAB75D"/>
</linearGradient>
<clipPath id="clip0_708_756">
<rect width="704.477" height="626.686" fill="white" transform="translate(0.880737)"/>
</clipPath>
</defs>
</svg>
